<?xml version="1.0" encoding="UTF-8" standalone="no"?>
<svg
   xmlns:dc="http://purl.org/dc/elements/1.1/"
   xmlns:cc="http://creativecommons.org/ns#"
   xmlns:rdf="http://www.w3.org/1999/02/22-rdf-syntax-ns#"
   xmlns:svg="http://www.w3.org/2000/svg"
   xmlns="http://www.w3.org/2000/svg"
   width="215.23318"
   height="1195.6326"
   id="svg15760"
   version="1.1">
  <metadata
     id="metadata16242">
    <rdf:RDF>
      <cc:Work
         rdf:about="">
        <dc:format>image/svg+xml</dc:format>
        <dc:type
           rdf:resource="http://purl.org/dc/dcmitype/StillImage" />
        <dc:title></dc:title>
      </cc:Work>
    </rdf:RDF>
  </metadata>
  <defs
     id="defs16240" />
  <path
     id="rect1064"
     d="m 61.349953,646.8446 h 93.751477 v 529.7033 H 61.349953 Z"
     style="display:inline;opacity:1;vector-effect:none;fill:#ff0000;fill-opacity:1;stroke:#000000;stroke-width:3.70173335;stroke-linecap:round;stroke-linejoin:bevel;stroke-miterlimit:4;stroke-dasharray:none;stroke-dashoffset:0;stroke-opacity:1" />
  <path
     id="rect17022"
     style="display:inline;fill:#ffffff;fill-opacity:1;stroke:#000000;stroke-width:4;stroke-linecap:round;stroke-linejoin:bevel;stroke-miterlimit:4;stroke-dasharray:none;stroke-opacity:1"
     d="m 107.6166,2 c 58.51159,0 105.61659,49.24122 105.61659,110.40632 v 970.81988 c 0,61.1651 -47.105,110.4063 -105.61659,110.4063 C 49.104999,1193.6325 2,1144.3913 2,1083.2262 V 112.40632 C 2,51.24122 49.104999,2 107.6166,2 Z m 0.0102,128.9219 c -5.60409,0 -10.125001,4.6274 -10.125001,10.40625 v 882.03115 c -14.40906,4.1843 -24.84375,17.0991 -24.84375,32.4688 v 34.2812 c 0,18.7797 15.60223,33.9062 34.968751,33.9062 19.36652,0 34.9375,-15.1265 34.9375,-33.9062 v -34.2812 c 0,-15.3697 -10.43469,-28.2845 -24.84375,-32.4688 V 141.32815 c 0,-5.77885 -4.48966,-10.40625 -10.09375,-10.40625 z" />
  <text
     xml:space="preserve"
     style="font-style:normal;font-weight:normal;line-height:0%;font-family:sans-serif;text-align:center;letter-spacing:0px;word-spacing:0px;text-anchor:middle;display:inline;fill:#000000;fill-opacity:1;stroke:none"
     x="102.6291"
     y="99.788719"
     id="text3499"><tspan
       id="tspan3501"
       x="102.6291"
       y="99.788719"
       style="font-size:50px;line-height:1.25;font-family:sans-serif;text-align:center;text-anchor:middle">°C</tspan></text>
  <g
     id="g16058"
     transform="translate(189.34995,-354.29904)"
     style="display:inline;opacity:1">
    <line
       x1="-100"
       y1="1300"
       x2="-150"
       y2="1300"
       id="line16060"
       style="stroke:#000000;stroke-width:1" />
    <text
       font-size="40px"
       x="-30"
       y="1315"
       id="text16062"
       style="font-size:40px;line-height:0%;font-family:sans-serif;text-anchor:middle;fill:#ff0000">30</text>
    <line
       x1="-100"
       y1="1280"
       x2="-120"
       y2="1280"
       id="line16064"
       style="stroke:#000000;stroke-width:1" />
    <line
       x1="-100"
       y1="1260"
       x2="-120"
       y2="1260"
       id="line16066"
       style="stroke:#000000;stroke-width:1" />
    <line
       x1="-100"
       y1="1240"
       x2="-120"
       y2="1240"
       id="line16068"
       style="stroke:#000000;stroke-width:1" />
    <line
       x1="-100"
       y1="1220"
       x2="-120"
       y2="1220"
       id="line16070"
       style="stroke:#000000;stroke-width:1" />
    <line
       x1="-100"
       y1="1200"
       x2="-150"
       y2="1200"
       id="line16072"
       style="stroke:#000000;stroke-width:1" />
    <text
       font-size="40px"
       x="-30"
       y="1215"
       id="text16074"
       style="font-size:40px;line-height:0%;font-family:sans-serif;text-anchor:middle;fill:#ff0000">20</text>
    <line
       x1="-100"
       y1="1180"
       x2="-120"
       y2="1180"
       id="line16076"
       style="stroke:#000000;stroke-width:1" />
    <line
       x1="-100"
       y1="1160"
       x2="-120"
       y2="1160"
       id="line16078"
       style="stroke:#000000;stroke-width:1" />
    <line
       x1="-100"
       y1="1140"
       x2="-120"
       y2="1140"
       id="line16080"
       style="stroke:#000000;stroke-width:1" />
    <line
       x1="-100"
       y1="1120"
       x2="-120"
       y2="1120"
       id="line16082"
       style="stroke:#000000;stroke-width:1" />
    <line
       x1="-100"
       y1="1100"
       x2="-150"
       y2="1100"
       id="line16084"
       style="stroke:#000000;stroke-width:1" />
    <text
       font-size="40px"
       x="-30"
       y="1115"
       id="text16086"
       style="font-size:40px;line-height:0%;font-family:sans-serif;text-anchor:middle;fill:#ff0000">10</text>
    <line
       x1="-100"
       y1="1080"
       x2="-120"
       y2="1080"
       id="line16088"
       style="stroke:#000000;stroke-width:1" />
    <line
       x1="-100"
       y1="1060"
       x2="-120"
       y2="1060"
       id="line16090"
       style="stroke:#000000;stroke-width:1" />
    <line
       x1="-100"
       y1="1040"
       x2="-120"
       y2="1040"
       id="line16092"
       style="stroke:#000000;stroke-width:1" />
    <line
       x1="-100"
       y1="1020"
       x2="-120"
       y2="1020"
       id="line16094"
       style="stroke:#000000;stroke-width:1" />
    <line
       x1="-100"
       y1="1000"
       x2="-150"
       y2="1000"
       id="line16096"
       style="stroke:#000000;stroke-width:1" />
    <text
       font-size="40px"
       x="-30"
       y="1015"
       id="text16098"
       style="font-size:40px;line-height:0%;font-family:sans-serif;text-anchor:middle;fill:#000000">0</text>
    <line
       x1="-100"
       y1="980"
       x2="-120"
       y2="980"
       id="line16100"
       style="stroke:#000000;stroke-width:1" />
    <line
       x1="-100"
       y1="960"
       x2="-120"
       y2="960"
       id="line16102"
       style="stroke:#000000;stroke-width:1" />
    <line
       x1="-100"
       y1="940"
       x2="-120"
       y2="940"
       id="line16104"
       style="stroke:#000000;stroke-width:1" />
    <line
       x1="-100"
       y1="920"
       x2="-120"
       y2="920"
       id="line16106"
       style="stroke:#000000;stroke-width:1" />
    <line
       x1="-100"
       y1="900"
       x2="-150"
       y2="900"
       id="line16108"
       style="stroke:#000000;stroke-width:1" />
    <text
       font-size="40px"
       x="-30"
       y="915"
       id="text16110"
       style="font-size:40px;line-height:0%;font-family:sans-serif;text-anchor:middle;fill:#000000">10</text>
    <line
       x1="-100"
       y1="880"
       x2="-120"
       y2="880"
       id="line16112"
       style="stroke:#000000;stroke-width:1" />
    <line
       x1="-100"
       y1="860"
       x2="-120"
       y2="860"
       id="line16114"
       style="stroke:#000000;stroke-width:1" />
    <line
       x1="-100"
       y1="840"
       x2="-120"
       y2="840"
       id="line16116"
       style="stroke:#000000;stroke-width:1" />
    <line
       x1="-100"
       y1="820"
       x2="-120"
       y2="820"
       id="line16118"
       style="stroke:#000000;stroke-width:1" />
    <line
       x1="-100"
       y1="800"
       x2="-150"
       y2="800"
       id="line16120"
       style="stroke:#000000;stroke-width:1" />
    <text
       font-size="40px"
       x="-30"
       y="815"
       id="text16122"
       style="font-size:40px;line-height:0%;font-family:sans-serif;text-anchor:middle;fill:#000000">20</text>
    <line
       x1="-100"
       y1="780"
       x2="-120"
       y2="780"
       id="line16124"
       style="stroke:#000000;stroke-width:1" />
    <line
       x1="-100"
       y1="760"
       x2="-120"
       y2="760"
       id="line16126"
       style="stroke:#000000;stroke-width:1" />
    <line
       x1="-100"
       y1="740"
       x2="-120"
       y2="740"
       id="line16128"
       style="stroke:#000000;stroke-width:1" />
    <line
       x1="-100"
       y1="720"
       x2="-120"
       y2="720"
       id="line16130"
       style="stroke:#000000;stroke-width:1" />
    <line
       x1="-100"
       y1="700"
       x2="-150"
       y2="700"
       id="line16132"
       style="stroke:#000000;stroke-width:1" />
    <text
       font-size="40px"
       x="-30"
       y="715"
       id="text16134"
       style="font-size:40px;line-height:0%;font-family:sans-serif;text-anchor:middle;fill:#000000">30</text>
    <line
       x1="-100"
       y1="680"
       x2="-120"
       y2="680"
       id="line16136"
       style="stroke:#000000;stroke-width:1" />
    <line
       x1="-100"
       y1="660"
       x2="-120"
       y2="660"
       id="line16138"
       style="stroke:#000000;stroke-width:1" />
    <line
       x1="-100"
       y1="640"
       x2="-120"
       y2="640"
       id="line16140"
       style="stroke:#000000;stroke-width:1" />
    <line
       x1="-100"
       y1="620"
       x2="-120"
       y2="620"
       id="line16142"
       style="stroke:#000000;stroke-width:1" />
    <line
       x1="-100"
       y1="600"
       x2="-150"
       y2="600"
       id="line16144"
       style="stroke:#000000;stroke-width:1" />
    <text
       font-size="40px"
       x="-30"
       y="615"
       id="text16146"
       style="font-size:40px;line-height:0%;font-family:sans-serif;text-anchor:middle;fill:#000000">40</text>
    <line
       x1="-100"
       y1="580"
       x2="-120"
       y2="580"
       id="line16148"
       style="stroke:#000000;stroke-width:1" />
    <line
       x1="-100"
       y1="560"
       x2="-120"
       y2="560"
       id="line16150"
       style="stroke:#000000;stroke-width:1" />
    <line
       x1="-100"
       y1="540"
       x2="-120"
       y2="540"
       id="line16152"
       style="stroke:#000000;stroke-width:1" />
    <line
       x1="-100"
       y1="520"
       x2="-120"
       y2="520"
       id="line16154"
       style="stroke:#000000;stroke-width:1" />
    <line
       x1="-100"
       y1="500"
       x2="-150"
       y2="500"
       id="line16156"
       style="stroke:#000000;stroke-width:1" />
    <text
       font-size="40px"
       x="-30"
       y="515"
       id="text16158"
       style="font-size:40px;line-height:0%;font-family:sans-serif;text-anchor:middle;display:inline;fill:#000000">50</text>
  </g>
</svg>
