<?xml version="1.0" encoding="UTF-8"?>
<svg width="420px" height="420px" viewBox="0 0 420 420" version="1.1" xmlns="http://www.w3.org/2000/svg" xmlns:xlink="http://www.w3.org/1999/xlink">
    <!-- Generator: Sketch 59.1 (86144) - https://sketch.com -->
    <title>cloudish</title>
    <desc>Created with Sketch.</desc>
    <defs>
        <polygon id="path-1" points="0.00757595082 0.00757595083 421.007576 0.00757595083 421.007576 421.007576 0.00757595082 421.007576"></polygon>
        <linearGradient x1="50%" y1="0%" x2="50%" y2="100%" id="linearGradient-3">
            <stop stop-color="#2676B0" offset="0%"></stop>
            <stop stop-color="#65C8D6" offset="100%"></stop>
        </linearGradient>
    </defs>
    <g id="Page-1" stroke="none" stroke-width="1" fill="none" fill-rule="evenodd">
        <g id="withoutText">
            <mask id="mask-2" fill="white">
                <use xlink:href="#path-1"></use>
            </mask>
            <use id="Rectangle" fill="#29347A" xlink:href="#path-1"></use>
            <path d="M-230.082521,-124.082521 C-221.295725,-132.869318 -207.049513,-132.869318 -198.262716,-124.082521 L35.0825215,109.262716 C43.869318,118.049513 43.869318,132.295725 35.0825215,141.082521 C26.2957249,149.869318 12.0495129,149.869318 3.26271632,141.082521 L-230.082521,-92.2627163 C-238.869318,-101.049513 -238.869318,-115.295725 -230.082521,-124.082521 Z" id="Rectangle" fill="url(#linearGradient-3)" mask="url(#mask-2)"></path>
            <path d="M74.9174785,180.917479 C83.7042751,172.130682 97.9504871,172.130682 106.737284,180.917479 L340.082521,414.262716 C348.869318,423.049513 348.869318,437.295725 340.082521,446.082521 C331.295725,454.869318 317.049513,454.869318 308.262716,446.082521 L74.9174785,212.737284 C66.130682,203.950487 66.130682,189.704275 74.9174785,180.917479 Z" id="Rectangle" fill="url(#linearGradient-3)" mask="url(#mask-2)"></path>
            <path d="M-90.0825215,-264.082521 C-81.2957249,-272.869318 -67.0495129,-272.869318 -58.2627163,-264.082521 L175.082521,-30.7372837 C183.869318,-21.9504871 183.869318,-7.70427509 175.082521,1.08252147 C166.295725,9.86931804 152.049513,9.86931804 143.262716,1.08252147 L-90.0825215,-232.262716 C-98.869318,-241.049513 -98.869318,-255.295725 -90.0825215,-264.082521 Z" id="Rectangle" fill="url(#linearGradient-3)" mask="url(#mask-2)"></path>
            <path d="M214.917479,40.9174785 C223.704275,32.130682 237.950487,32.130682 246.737284,40.9174785 L480.082521,274.262716 C488.869318,283.049513 488.869318,297.295725 480.082521,306.082521 C471.295725,314.869318 457.049513,314.869318 448.262716,306.082521 L214.917479,72.7372837 C206.130682,63.9504871 206.130682,49.7042751 214.917479,40.9174785 Z" id="Rectangle" fill="url(#linearGradient-3)" mask="url(#mask-2)"></path>
            <path d="M-0.0825214725,-34.0825215 C8.70427509,-42.869318 22.9504871,-42.869318 31.7372837,-34.0825215 L265.082521,199.262716 C273.869318,208.049513 273.869318,222.295725 265.082521,231.082521 C256.295725,239.869318 242.049513,239.869318 233.262716,231.082521 L-0.0825214725,-2.26271632 C-8.86931804,-11.0495129 -8.86931804,-25.2957249 -0.0825214725,-34.0825215 Z" id="Rectangle" fill="url(#linearGradient-3)" mask="url(#mask-2)"></path>
            <path d="M304.917479,270.917479 C313.704275,262.130682 327.950487,262.130682 336.737284,270.917479 L570.082521,504.262716 C578.869318,513.049513 578.869318,527.295725 570.082521,536.082521 C561.295725,544.869318 547.049513,544.869318 538.262716,536.082521 L304.917479,302.737284 C296.130682,293.950487 296.130682,279.704275 304.917479,270.917479 Z" id="Rectangle" fill="url(#linearGradient-3)" mask="url(#mask-2)"></path>
            <path d="M-140.082521,105.917479 C-131.295725,97.130682 -117.049513,97.130682 -108.262716,105.917479 L125.082521,339.262716 C133.869318,348.049513 133.869318,362.295725 125.082521,371.082521 C116.295725,379.869318 102.049513,379.869318 93.2627163,371.082521 L-140.082521,137.737284 C-148.869318,128.950487 -148.869318,114.704275 -140.082521,105.917479 Z" id="Rectangle" fill="url(#linearGradient-3)" mask="url(#mask-2)"></path>
            <path d="M164.917479,410.917479 C173.704275,402.130682 187.950487,402.130682 196.737284,410.917479 L430.082521,644.262716 C438.869318,653.049513 438.869318,667.295725 430.082521,676.082521 C421.295725,684.869318 407.049513,684.869318 398.262716,676.082521 L164.917479,442.737284 C156.130682,433.950487 156.130682,419.704275 164.917479,410.917479 Z" id="Rectangle" fill="url(#linearGradient-3)" mask="url(#mask-2)"></path>
            <path d="M139.917479,-174.082521 C148.704275,-182.869318 162.950487,-182.869318 171.737284,-174.082521 L405.082521,59.2627163 C413.869318,68.0495129 413.869318,82.2957249 405.082521,91.0825215 C396.295725,99.869318 382.049513,99.869318 373.262716,91.0825215 L139.917479,-142.262716 C131.130682,-151.049513 131.130682,-165.295725 139.917479,-174.082521 Z" id="Rectangle" fill="url(#linearGradient-3)" mask="url(#mask-2)"></path>
        </g>
    </g>
</svg>
