<?xml version="1.0" encoding="UTF-8" standalone="no"?>
<!-- Generator: Adobe Illustrator 15.1.0, SVG Export Plug-In . SVG Version: 6.00 Build 0)  -->

<svg
   xmlns:dc="http://purl.org/dc/elements/1.1/"
   xmlns:cc="http://creativecommons.org/ns#"
   xmlns:rdf="http://www.w3.org/1999/02/22-rdf-syntax-ns#"
   xmlns:svg="http://www.w3.org/2000/svg"
   xmlns="http://www.w3.org/2000/svg"
   xmlns:sodipodi="http://sodipodi.sourceforge.net/DTD/sodipodi-0.dtd"
   xmlns:inkscape="http://www.inkscape.org/namespaces/inkscape"
   version="1.1"
   id="Layer_1"
   x="0px"
   y="0px"
   width="53.993"
   height="59.993"
   viewBox="0 0 53.993 59.993"
   enable-background="new 0 0 100 100"
   xml:space="preserve"
   sodipodi:docname="10_HeavyRainShowers.svg"
   inkscape:version="0.92.4 5da689c313, 2019-01-14"><metadata
   id="metadata9"><rdf:RDF><cc:Work
       rdf:about=""><dc:format>image/svg+xml</dc:format><dc:type
         rdf:resource="http://purl.org/dc/dcmitype/StillImage" /><dc:title></dc:title></cc:Work></rdf:RDF></metadata><defs
   id="defs7" /><sodipodi:namedview
   pagecolor="#ffffff"
   bordercolor="#666666"
   borderopacity="1"
   objecttolerance="10"
   gridtolerance="10"
   guidetolerance="10"
   inkscape:pageopacity="0"
   inkscape:pageshadow="2"
   inkscape:window-width="1896"
   inkscape:window-height="1008"
   id="namedview5"
   showgrid="false"
   fit-margin-top="0"
   fit-margin-left="0"
   fit-margin-right="0"
   fit-margin-bottom="0"
   inkscape:zoom="2.36"
   inkscape:cx="-60.998847"
   inkscape:cy="27.639"
   inkscape:window-x="1090"
   inkscape:window-y="462"
   inkscape:window-maximized="0"
   inkscape:current-layer="Layer_1" />
<path
   d="m 51.993,25.996 h -4 c -1.104,0 -2,-0.895 -2,-2 0,-1.104 0.896,-2 2,-2 h 4 c 1.104,0 2,0.896 2,2 0,1.106 -0.896,2 -2,2 z M 44.136,12.684 c -0.781,0.781 -2.047,0.781 -2.828,0 -0.781,-0.78 -0.781,-2.047 0,-2.828 l 2.828,-2.828 c 0.781,-0.78 2.047,-0.78 2.828,0 0.781,0.781 0.781,2.048 0,2.828 z m -2.947,15.607 v 0 c 1.75,2.084 2.805,4.77 2.805,7.704 0,5.223 -3.342,9.652 -7.998,11.301 v -4.381 c 2.389,-1.383 4,-3.961 4,-6.92 0,-4.417 -3.582,-7.999 -8,-7.999 -1.6,0 -3.084,0.48 -4.334,1.291 -1.23,-5.317 -5.973,-9.29 -11.664,-9.29 C 9.371,19.997 4,25.369 4,31.995 c 0,3.55 1.551,6.728 4,8.925 v 4.916 C 3.223,43.068 0,37.914 0,31.995 0,23.16 7.162,15.998 15.998,15.998 c 1.572,0 3.09,0.231 4.523,0.654 2.195,-2.827 5.617,-4.654 9.475,-4.654 6.627,0 11.998,5.371 11.998,11.998 -10e-4,1.516 -0.292,2.96 -0.805,4.295 z M 29.995,15.998 c -2.211,0 -4.215,0.898 -5.662,2.35 2.34,1.435 4.285,3.452 5.629,5.854 0.664,-0.113 1.338,-0.205 2.033,-0.205 2.125,0 4.119,0.559 5.85,1.527 v 0 c 0.096,-0.494 0.15,-1.004 0.15,-1.527 0,-4.419 -3.582,-7.999 -8,-7.999 z m 0,-8 c -1.104,0 -2,-0.895 -2,-2 V 1.999 c 0,-1.104 0.896,-1.999 2,-1.999 1.105,0 2,0.895 2,1.999 v 3.999 c 0,1.106 -0.894,2 -2,2 z m -14.14,4.686 -2.828,-2.828 c -0.779,-0.78 -0.779,-2.047 0,-2.828 0.781,-0.78 2.049,-0.78 2.828,0 l 2.828,2.828 c 0.781,0.781 0.781,2.048 0,2.828 -0.781,0.781 -2.047,0.781 -2.828,0 z m -1.858,23.311 c 1.105,0 2,0.896 2,2 v 15.998 c 0,1.105 -0.895,2 -2,2 -1.104,0 -2,-0.895 -2,-2 V 37.995 c 0,-1.104 0.897,-2 2,-2 z m 8,4 c 1.104,0 2,0.895 2,2 v 15.998 c 0,1.104 -0.896,2 -2,2 -1.105,0 -2,-0.896 -2,-2 V 41.995 c 0,-1.106 0.895,-2 2,-2 z m 7.998,-4 c 1.105,0 2,0.896 2,2 v 15.998 c 0,1.105 -0.895,2 -2,2 -1.104,0 -2,-0.895 -2,-2 V 37.995 c 0,-1.104 0.897,-2 2,-2 z"
   id="path2"
   inkscape:connector-curvature="0"
   style="clip-rule:evenodd;fill-rule:evenodd" />
</svg>