<?xml version="1.0" encoding="UTF-8" standalone="no"?>
<svg
   xmlns:dc="http://purl.org/dc/elements/1.1/"
   xmlns:cc="http://creativecommons.org/ns#"
   xmlns:rdf="http://www.w3.org/1999/02/22-rdf-syntax-ns#"
   xmlns:svg="http://www.w3.org/2000/svg"
   xmlns="http://www.w3.org/2000/svg"
   xmlns:sodipodi="http://sodipodi.sourceforge.net/DTD/sodipodi-0.dtd"
   xmlns:inkscape="http://www.inkscape.org/namespaces/inkscape"
   xml:space="preserve"
   enable-background="new 0 0 100 100"
   viewBox="0 0 53.852131 53.852131"
   height="53.852131"
   width="53.852131"
   y="0px"
   x="0px"
   id="Layer_1"
   version="1.1"
   sodipodi:docname="11_ThunderStorm.svg"
   inkscape:version="0.92.4 5da689c313, 2019-01-14"><sodipodi:namedview
   pagecolor="#ffffff"
   bordercolor="#666666"
   borderopacity="1"
   objecttolerance="10"
   gridtolerance="10"
   guidetolerance="10"
   inkscape:pageopacity="0"
   inkscape:pageshadow="2"
   inkscape:window-width="1896"
   inkscape:window-height="1038"
   id="namedview7"
   showgrid="false"
   fit-margin-top="0"
   fit-margin-left="0"
   fit-margin-right="0"
   fit-margin-bottom="0"
   inkscape:zoom="2.36"
   inkscape:cx="-47.071796"
   inkscape:cy="25.630727"
   inkscape:window-x="1090"
   inkscape:window-y="430"
   inkscape:window-maximized="0"
   inkscape:current-layer="Layer_1" /><metadata
   id="metadata9"><rdf:RDF><cc:Work
       rdf:about=""><dc:format>image/svg+xml</dc:format><dc:type
         rdf:resource="http://purl.org/dc/dcmitype/StillImage" /><dc:title></dc:title></cc:Work></rdf:RDF></metadata><defs
   id="defs7" />
<path
   id="path2"
   d="m 37.995,31.997994 c -0.28,0 -0.649,0 -1.062,0 l 3.585,-4.412 c 3.181,-1.057 5.477,-4.053 5.477,-7.588 0,-4.418 -3.581,-7.998 -7.999,-7.998 -1.601,0 -3.083,0.48 -4.333,1.29 -1.232,-5.3159996 -5.974,-9.2899996 -11.665,-9.2899996 -6.626,0 -11.998,5.372 -11.998,11.9999996 0,5.446 3.632,10.038 8.604,11.504 l -1.349,3.777 C 10.735,29.259994 6,23.182994 6,15.998994 6,7.1639944 13.163,-5.5944824e-6 21.998,-5.5944824e-6 c 6.004,0 11.229,3.3119999944824 13.965,8.2039999944824 0.664,-0.114 1.337,-0.205 2.033,-0.205 6.627,0 11.999,5.3709996 11.999,11.9979996 0,6.627 -5.373,12.001 -12,12.001 z m -11.998,-14 h 9.998 l -5.999,10 h 6.999 l -12.998,15.998 3.6,-11.998 h -6.6 z"
   inkscape:connector-curvature="0"
   style="clip-rule:evenodd;fill-rule:evenodd" />
<path
   style="clip-rule:evenodd;fill-rule:evenodd"
   id="path2-6"
   d="m 18.778562,33.854128 c 1.105,0 2,0.896 2,2 v 11.998 c 0,1.105 -0.895,2 -2,2 -1.104,0 -2,-0.895 -2,-2 v -11.998 c 0,-1.104 0.897,-2 2,-2 z m 8.000002,12 c 1.104,0 2,0.895 2,2 v 3.998 c 0,1.104 -0.896,2 -2,2 -1.105,0 -2.000002,-0.896 -2.000002,-2 v -3.998 c 0,-1.106 0.895002,-2 2.000002,-2 z m 7.998,-8 c 1.105,0 2,0.896 2,2 v 7.998 c 0,1.105 -0.895,2 -2,2 -1.104,0 -2,-0.895 -2,-2 v -7.998 c 0,-1.104 0.897,-2 2,-2 z"
   inkscape:connector-curvature="0" /></svg>