<?xml version="1.0" encoding="UTF-8" standalone="no"?>
<svg
   xmlns:dc="http://purl.org/dc/elements/1.1/"
   xmlns:cc="http://creativecommons.org/ns#"
   xmlns:rdf="http://www.w3.org/1999/02/22-rdf-syntax-ns#"
   xmlns:svg="http://www.w3.org/2000/svg"
   xmlns="http://www.w3.org/2000/svg"
   xmlns:sodipodi="http://sodipodi.sourceforge.net/DTD/sodipodi-0.dtd"
   xmlns:inkscape="http://www.inkscape.org/namespaces/inkscape"
   xml:space="preserve"
   enable-background="new 0 0 100 100"
   viewBox="0 0 43.994999 53.852135"
   height="53.852135"
   width="43.994999"
   y="0px"
   x="0px"
   id="Layer_1"
   version="1.1"
   sodipodi:docname="11_ThunderStorm.svg"
   inkscape:version="0.92.4 5da689c313, 2019-01-14"><sodipodi:namedview
   pagecolor="#ffffff"
   bordercolor="#666666"
   borderopacity="1"
   objecttolerance="10"
   gridtolerance="10"
   guidetolerance="10"
   inkscape:pageopacity="0"
   inkscape:pageshadow="2"
   inkscape:window-width="1896"
   inkscape:window-height="1008"
   id="namedview7"
   showgrid="false"
   fit-margin-top="0"
   fit-margin-left="0"
   fit-margin-right="0"
   fit-margin-bottom="0"
   inkscape:zoom="2.36"
   inkscape:cx="-61.054847"
   inkscape:cy="37.495134"
   inkscape:window-x="1090"
   inkscape:window-y="462"
   inkscape:window-maximized="0"
   inkscape:current-layer="Layer_1" /><metadata
   id="metadata9"><rdf:RDF><cc:Work
       rdf:about=""><dc:format>image/svg+xml</dc:format><dc:type
         rdf:resource="http://purl.org/dc/dcmitype/StillImage" /><dc:title></dc:title></cc:Work></rdf:RDF></metadata><defs
   id="defs7" />
<path
   id="path2"
   d="m 31.995,31.998 c -0.28,0 -0.649,0 -1.062,0 l 3.585,-4.412 c 3.181,-1.057 5.477,-4.053 5.477,-7.588 C 39.995,15.58 36.414,12 31.996,12 30.395,12 28.913,12.48 27.663,13.29 26.431,7.974 21.689,4 15.998,4 9.372,4 4,9.372 4,16 c 0,5.446 3.632,10.038 8.604,11.504 l -1.349,3.777 C 4.735,29.26 0,23.183 0,15.999 0,7.164 7.163,0 15.998,0 22.002,0 27.227,3.312 29.963,8.204 30.627,8.09 31.3,7.999 31.996,7.999 c 6.627,0 11.999,5.371 11.999,11.998 0,6.627 -5.373,12.001 -12,12.001 z m -11.998,-14 h 9.998 l -5.999,10 h 6.999 l -12.998,15.998 3.6,-11.998 h -6.6 z"
   inkscape:connector-curvature="0"
   style="clip-rule:evenodd;fill-rule:evenodd" />
<path
   style="clip-rule:evenodd;fill-rule:evenodd"
   id="path2-6"
   d="m 12.778562,33.854134 c 1.105,0 2,0.896 2,2 v 11.998 c 0,1.105 -0.895,2 -2,2 -1.104,0 -2,-0.895 -2,-2 v -11.998 c 0,-1.104 0.897,-2 2,-2 z m 8.000002,12 c 1.104,0 2,0.895 2,2 v 3.998 c 0,1.104 -0.896,2 -2,2 -1.105,0 -2.000002,-0.896 -2.000002,-2 v -3.998 c 0,-1.106 0.895002,-2 2.000002,-2 z m 7.998,-8 c 1.105,0 2,0.896 2,2 v 7.998 c 0,1.105 -0.895,2 -2,2 -1.104,0 -2,-0.895 -2,-2 v -7.998 c 0,-1.104 0.897,-2 2,-2 z"
   inkscape:connector-curvature="0" /></svg>