<?xml version="1.0" encoding="UTF-8" standalone="no"?>
<!-- Generator: Adobe Illustrator 15.1.0, SVG Export Plug-In . SVG Version: 6.00 Build 0)  -->

<svg
   xmlns:dc="http://purl.org/dc/elements/1.1/"
   xmlns:cc="http://creativecommons.org/ns#"
   xmlns:rdf="http://www.w3.org/1999/02/22-rdf-syntax-ns#"
   xmlns:svg="http://www.w3.org/2000/svg"
   xmlns="http://www.w3.org/2000/svg"
   xmlns:sodipodi="http://sodipodi.sourceforge.net/DTD/sodipodi-0.dtd"
   xmlns:inkscape="http://www.inkscape.org/namespaces/inkscape"
   version="1.1"
   id="Layer_1"
   x="0px"
   y="0px"
   width="53.993999"
   height="61.993"
   viewBox="0 0 53.993999 61.993"
   enable-background="new 0 0 100 100"
   xml:space="preserve"
   sodipodi:docname="13_ModerateSleetShowers.svg"
   inkscape:version="0.92.4 5da689c313, 2019-01-14"><metadata
   id="metadata9"><rdf:RDF><cc:Work
       rdf:about=""><dc:format>image/svg+xml</dc:format><dc:type
         rdf:resource="http://purl.org/dc/dcmitype/StillImage" /><dc:title></dc:title></cc:Work></rdf:RDF></metadata><defs
   id="defs7" /><sodipodi:namedview
   pagecolor="#ffffff"
   bordercolor="#666666"
   borderopacity="1"
   objecttolerance="10"
   gridtolerance="10"
   guidetolerance="10"
   inkscape:pageopacity="0"
   inkscape:pageshadow="2"
   inkscape:window-width="1896"
   inkscape:window-height="1008"
   id="namedview5"
   showgrid="false"
   fit-margin-top="0"
   fit-margin-left="0"
   fit-margin-right="0"
   fit-margin-bottom="0"
   inkscape:zoom="2.36"
   inkscape:cx="-61.053847"
   inkscape:cy="29.639"
   inkscape:window-x="1090"
   inkscape:window-y="462"
   inkscape:window-maximized="0"
   inkscape:current-layer="Layer_1" />
<path
   d="m 51.994,25.997 h -4 c -1.104,0 -1.999,-0.895 -1.999,-2 0,-1.104 0.896,-2 1.999,-2 h 4 c 1.104,0 2,0.896 2,2 0,1.105 -0.895,2 -2,2 z M 44.137,12.685 c -0.78,0.781 -2.047,0.781 -2.828,0 -0.78,-0.781 -0.78,-2.047 0,-2.828 l 2.828,-2.828 c 0.781,-0.781 2.048,-0.781 2.828,0 0.781,0.781 0.781,2.047 0,2.828 z m -2.948,15.607 v 0 c 1.75,2.084 2.806,4.77 2.806,7.703 0,5.223 -3.342,9.652 -7.999,11.303 v -4.381 c 2.389,-1.385 4,-3.963 4,-6.922 0,-4.416 -3.582,-7.998 -8,-7.998 -1.6,0 -3.082,0.48 -4.333,1.291 C 26.432,23.972 21.689,19.997 15.998,19.997 9.372,19.997 4,25.37 4,31.997 c 0,1.404 0.252,2.748 0.697,3.998 v 0 c 0.68,1.91 1.822,3.6 3.303,4.926 v 4.916 C 4.34,43.716 1.607,40.189 0.523,35.995 0.191,34.716 0,33.38 0,31.997 0,23.162 7.163,15.998 15.998,15.998 c 1.573,0 3.09,0.232 4.524,0.655 2.195,-2.828 5.618,-4.654 9.475,-4.654 6.626,0 11.999,5.371 11.999,11.998 0,1.515 -0.293,2.959 -0.807,4.295 z M 29.997,15.998 c -2.212,0 -4.215,0.898 -5.663,2.351 2.341,1.435 4.286,3.452 5.629,5.853 0.664,-0.113 1.338,-0.205 2.033,-0.205 2.126,0 4.119,0.559 5.85,1.527 v 0 c 0.097,-0.494 0.15,-1.004 0.15,-1.527 0,-4.418 -3.582,-7.999 -7.999,-7.999 z m 0,-7.999 c -1.104,0 -2,-0.895 -2,-2 V 2 c 0,-1.104 0.896,-2 2,-2 1.104,0 1.999,0.896 1.999,2 v 3.999 c 0,1.105 -0.895,2 -1.999,2 z M 15.856,12.685 13.028,9.857 c -0.78,-0.781 -0.78,-2.047 0,-2.828 0.781,-0.781 2.048,-0.781 2.828,0 l 2.828,2.828 c 0.781,0.781 0.781,2.047 0,2.828 -0.78,0.781 -2.046,0.781 -2.828,0 z M 3,54.993 c 1.105,0 2,0.896 2,2 0,1.105 -0.895,2 -2,2 -1.104,0 -2,-0.895 -2,-2 0,-1.104 0.896,-2 2,-2 z m 9.999,-16.998 c 0,-1.104 -0.104,-2 1,-2 v 0 c 1.104,0 1,0.896 1,2 v 23.998 h -2 v 0 0 c 0,-2.209 -1.79,-4 -3.999,-4 v -2 c 1.543,0 2.936,0.6 3.999,1.557 z m 8.999,13.998 c -1.104,0 -1,-0.895 -1,-1.998 v -8 c 0,-1.104 -0.104,-2 1,-2 1.104,0 1,0.896 1,2 v 8 c 0,1.103 0.104,1.998 -1,1.998 z m 0,4 c 1.104,0 2,0.896 2,2 0,1.104 -0.896,2 -2,2 -1.104,0 -2,-0.896 -2,-2 0,-1.104 0.895,-2 2,-2 z m 7.999,-19.998 v 0 c 1.104,0 1,0.896 1,2 v 18.016 c 1.823,-2.434 4.723,-4.018 7.999,-4.018 v 2 c -4.418,0 -7.999,3.582 -7.999,8 h -2 c 0,-0.273 0.02,-0.539 0.04,-0.807 -0.053,-0.334 -0.04,-0.744 -0.04,-1.193 V 37.995 c 0,-1.104 -0.104,-2 1,-2 z m 14.998,14 c 1.104,0 1.999,0.895 1.999,1.998 0,1.105 -0.895,2 -1.999,2 -1.104,0 -2,-0.895 -2,-2 0,-1.104 0.896,-1.998 2,-1.998 z"
   id="path2"
   inkscape:connector-curvature="0"
   style="clip-rule:evenodd;fill-rule:evenodd" />
</svg>