<?xml version="1.0" encoding="UTF-8" standalone="no"?>
<svg
   xmlns:dc="http://purl.org/dc/elements/1.1/"
   xmlns:cc="http://creativecommons.org/ns#"
   xmlns:rdf="http://www.w3.org/1999/02/22-rdf-syntax-ns#"
   xmlns:svg="http://www.w3.org/2000/svg"
   xmlns="http://www.w3.org/2000/svg"
   xmlns:sodipodi="http://sodipodi.sourceforge.net/DTD/sodipodi-0.dtd"
   xmlns:inkscape="http://www.inkscape.org/namespaces/inkscape"
   xml:space="preserve"
   enable-background="new 0 0 100 100"
   viewBox="0 0 61.993 61.993"
   height="61.993"
   width="61.993"
   y="0px"
   x="0px"
   id="Layer_1"
   version="1.1"
   sodipodi:docname="14_HeavySleetShowers.svg"
   inkscape:version="0.92.4 5da689c313, 2019-01-14"><sodipodi:namedview
   pagecolor="#ffffff"
   bordercolor="#666666"
   borderopacity="1"
   objecttolerance="10"
   gridtolerance="10"
   guidetolerance="10"
   inkscape:pageopacity="0"
   inkscape:pageshadow="2"
   inkscape:window-width="1896"
   inkscape:window-height="1038"
   id="namedview9"
   showgrid="false"
   fit-margin-top="0"
   fit-margin-left="0"
   fit-margin-right="0"
   fit-margin-bottom="0"
   inkscape:zoom="2.36"
   inkscape:cx="-61.817796"
   inkscape:cy="53.791542"
   inkscape:window-x="1090"
   inkscape:window-y="430"
   inkscape:window-maximized="0"
   inkscape:current-layer="Layer_1" /><metadata
   id="metadata9"><rdf:RDF><cc:Work
       rdf:about=""><dc:format>image/svg+xml</dc:format><dc:type
         rdf:resource="http://purl.org/dc/dcmitype/StillImage" /><dc:title></dc:title></cc:Work></rdf:RDF></metadata><defs
   id="defs7" />
<path
   style="clip-rule:evenodd;fill-rule:evenodd"
   id="path2"
   d="m 57.772424,25.997 h -4 c -1.104,0 -1.999,-0.895 -1.999,-2 0,-1.104 0.896,-2 1.999,-2 h 4 c 1.104,0 2,0.896 2,2 0,1.105 -0.895,2 -2,2 z m -7.857,-13.312 c -0.78,0.781 -2.047,0.781 -2.828,0 -0.78,-0.781 -0.78,-2.047 0,-2.828 l 2.828,-2.828 c 0.781,-0.781 2.048,-0.781 2.828,0 0.781,0.781 0.781,2.047 0,2.828 z m -2.948,15.607 v 0 c 1.75,2.084 2.806,4.77 2.806,7.703 0,5.223 -3.342,9.652 -7.999,11.303 v -4.381 c 2.389,-1.385 4,-3.963 4,-6.922 0,-4.416 -3.582,-7.998 -8,-7.998 -1.6,0 -3.082,0.48 -4.333,1.291 -1.231,-5.316 -5.974,-9.291 -11.665,-9.291 -6.626,0 -11.9980003,5.373 -11.9980003,12 0,1.404 0.2520003,2.748 0.6970003,3.998 v 0 c 0.68,1.91 1.822,3.6 3.303,4.926 v 4.916 c -3.66,-2.121 -6.3930003,-5.648 -7.4770003,-9.842 -0.332,-1.279 -0.523,-2.615 -0.523,-3.998 0,-8.835 7.1630003,-15.999 15.9980003,-15.999 1.573,0 3.09,0.232 4.524,0.655 2.195,-2.828 5.618,-4.654 9.475,-4.654 6.626,0 11.999,5.371 11.999,11.998 0,1.515 -0.293,2.959 -0.807,4.295 z m -11.192,-12.294 c -2.212,0 -4.215,0.898 -5.663,2.351 2.341,1.435 4.286,3.452 5.629,5.853 0.664,-0.113 1.338,-0.205 2.033,-0.205 2.126,0 4.119,0.559 5.85,1.527 v 0 c 0.097,-0.494 0.15,-1.004 0.15,-1.527 0,-4.418 -3.582,-7.999 -7.999,-7.999 z m 0,-7.999 c -1.104,0 -2,-0.895 -2,-2 V 2 c 0,-1.10400006 0.896,-2.000000061035152 2,-2.000000061035152 1.104,0 1.999,0.896000001035152 1.999,2.000000061035152 v 3.999 c 0,1.105 -0.895,2 -1.999,2 z m -14.141,4.686 -2.828,-2.828 c -0.78,-0.781 -0.78,-2.047 0,-2.828 0.781,-0.781 2.048,-0.781 2.828,0 l 2.828,2.828 c 0.781,0.781 0.781,2.047 0,2.828 -0.78,0.781 -2.046,0.781 -2.828,0 z m -2.857,25.31 c 0,-1.104 -0.104,-2 1,-2 v 0 c 1.104,0 1,0.896 1,2 v 23.998 h -2 v 0 0 c 0,-2.209 -1.79,-4 -3.999,-4 v -2 c 1.543,0 2.936,0.6 3.999,1.557 z m 8.999,13.998 c -1.104,0 -1,-0.895 -1,-1.998 v -8 c 0,-1.104 -0.104,-2 1,-2 1.104,0 1,0.896 1,2 v 8 c 0,1.103 0.104,1.998 -1,1.998 z m 7.999,-15.998 v 0 c 1.104,0 1,0.896 1,2 v 18.016 c 1.823,-2.434 4.723,-4.018 7.999,-4.018 v 2 c -4.418,0 -7.999,3.582 -7.999,8 h -2 c 0,-0.273 0.02,-0.539 0.04,-0.807 -0.053,-0.334 -0.04,-0.744 -0.04,-1.193 V 37.995 c 0,-1.104 -0.104,-2 1,-2 z"
   inkscape:connector-curvature="0" />
<circle
   r="3.3898306"
   cy="52.798916"
   cx="51.610165"
   id="path821"
   style="opacity:1;vector-effect:none;fill:#000000;fill-opacity:1;stroke:#000000;stroke-width:2;stroke-linecap:round;stroke-linejoin:round;stroke-miterlimit:4;stroke-dasharray:none;stroke-dashoffset:0;stroke-opacity:1" /><circle
   r="3.1779661"
   cy="57.671795"
   cx="27.775425"
   id="path823"
   style="opacity:1;vector-effect:none;fill:#000000;fill-opacity:1;stroke:#000000;stroke-width:2;stroke-linecap:round;stroke-linejoin:round;stroke-miterlimit:4;stroke-dasharray:none;stroke-dashoffset:0;stroke-opacity:1" /><circle
   r="3.1779661"
   cy="55.87096"
   cx="9.025424"
   id="path823-3"
   style="opacity:1;vector-effect:none;fill:#000000;fill-opacity:1;stroke:#000000;stroke-width:2;stroke-linecap:round;stroke-linejoin:round;stroke-miterlimit:4;stroke-dasharray:none;stroke-dashoffset:0;stroke-opacity:1" /></svg>