<?xml version="1.0" encoding="UTF-8" standalone="no"?>
<!-- Generator: Adobe Illustrator 15.1.0, SVG Export Plug-In . SVG Version: 6.00 Build 0)  -->

<svg
   xmlns:dc="http://purl.org/dc/elements/1.1/"
   xmlns:cc="http://creativecommons.org/ns#"
   xmlns:rdf="http://www.w3.org/1999/02/22-rdf-syntax-ns#"
   xmlns:svg="http://www.w3.org/2000/svg"
   xmlns="http://www.w3.org/2000/svg"
   xmlns:sodipodi="http://sodipodi.sourceforge.net/DTD/sodipodi-0.dtd"
   xmlns:inkscape="http://www.inkscape.org/namespaces/inkscape"
   version="1.1"
   id="Layer_1"
   x="0px"
   y="0px"
   width="53.993"
   height="53.993"
   viewBox="0 0 53.993 53.993"
   enable-background="new 0 0 100 100"
   xml:space="preserve"
   sodipodi:docname="15_LightSnowShowers.svg"
   inkscape:version="0.92.4 5da689c313, 2019-01-14"><metadata
   id="metadata9"><rdf:RDF><cc:Work
       rdf:about=""><dc:format>image/svg+xml</dc:format><dc:type
         rdf:resource="http://purl.org/dc/dcmitype/StillImage" /><dc:title></dc:title></cc:Work></rdf:RDF></metadata><defs
   id="defs7" /><sodipodi:namedview
   pagecolor="#ffffff"
   bordercolor="#666666"
   borderopacity="1"
   objecttolerance="10"
   gridtolerance="10"
   guidetolerance="10"
   inkscape:pageopacity="0"
   inkscape:pageshadow="2"
   inkscape:window-width="1896"
   inkscape:window-height="1008"
   id="namedview5"
   showgrid="false"
   fit-margin-top="0"
   fit-margin-left="0"
   fit-margin-right="0"
   fit-margin-bottom="0"
   inkscape:zoom="2.36"
   inkscape:cx="-61.054847"
   inkscape:cy="21.639"
   inkscape:window-x="1090"
   inkscape:window-y="462"
   inkscape:window-maximized="0"
   inkscape:current-layer="Layer_1" />
<path
   d="m 51.993,25.996 h -4 c -1.104,0 -1.999,-0.895 -1.999,-2 0,-1.104 0.895,-2 1.999,-2 h 4 c 1.104,0 2,0.896 2,2 0,1.106 -0.895,2 -2,2 z M 44.137,12.684 c -0.781,0.781 -2.048,0.781 -2.828,0 -0.781,-0.781 -0.781,-2.047 0,-2.828 l 2.828,-2.828 c 0.78,-0.781 2.047,-0.781 2.827,0 0.781,0.781 0.781,2.047 0,2.828 z m -2.949,15.607 v 0 c 1.749,2.084 2.806,4.77 2.806,7.704 0,5.945 -4.326,10.865 -9.999,11.82 v -4.082 c 3.448,-0.891 5.999,-4.012 5.999,-7.738 0,-4.417 -3.581,-7.999 -7.998,-7.999 -1.601,0 -3.084,0.48 -4.334,1.291 -1.231,-5.316 -5.974,-9.291 -11.665,-9.291 -6.626,0 -11.998,5.373 -11.998,12 0,4.438 2.416,8.305 5.999,10.379 V 46.82 C 4.138,44.445 0,38.707 0,31.995 0,23.159 7.162,15.996 15.997,15.996 c 1.573,0 3.09,0.232 4.524,0.655 2.195,-2.828 5.617,-4.654 9.475,-4.654 6.626,0 11.998,5.371 11.998,11.998 0,1.517 -0.293,2.96 -0.806,4.296 z M 29.996,15.998 c -2.213,0 -4.215,0.898 -5.663,2.351 2.341,1.435 4.286,3.453 5.63,5.853 0.663,-0.113 1.336,-0.205 2.033,-0.205 2.125,0 4.118,0.559 5.85,1.527 v 0 c 0.096,-0.494 0.149,-1.004 0.149,-1.527 0,-4.419 -3.582,-7.999 -7.999,-7.999 z m 0,-7.999 c -1.104,0 -2,-0.895 -2,-2 V 2 c 0,-1.104 0.896,-2 2,-2 1.104,0 2,0.896 2,2 v 3.999 c 0,1.105 -0.896,2 -2,2 z M 15.855,12.684 13.027,9.856 c -0.781,-0.781 -0.781,-2.047 0,-2.828 0.781,-0.781 2.047,-0.781 2.828,0 l 2.828,2.828 c 0.781,0.781 0.781,2.047 0,2.828 -0.781,0.781 -2.046,0.781 -2.828,0 z m -0.786,29.311 c 0.553,-0.957 1.775,-1.283 2.731,-0.732 l 2.196,1.268 v -2.535 c 0,-1.104 0.896,-2 2,-2 1.104,0 1.999,0.896 1.999,2 v 2.535 l 2.196,-1.268 c 0.956,-0.551 2.18,-0.225 2.731,0.732 0.553,0.957 0.225,2.18 -0.731,2.732 l -2.195,1.268 2.196,1.268 c 0.956,0.553 1.284,1.775 0.731,2.732 -0.552,0.955 -1.775,1.283 -2.731,0.73 l -2.196,-1.267 v 2.535 c 0,1.105 -0.895,2 -1.999,2 -1.104,0 -2,-0.895 -2,-2 v -2.535 l -2.196,1.268 c -0.956,0.553 -2.179,0.225 -2.731,-0.73 -0.552,-0.957 -0.225,-2.18 0.732,-2.732 l 2.195,-1.268 -2.195,-1.268 c -0.957,-0.554 -1.285,-1.776 -0.733,-2.733 z m 6.928,6 c 1.104,0 1.999,-0.896 1.999,-2 0,-1.105 -0.895,-2 -1.999,-2 -1.104,0 -2,0.895 -2,2 0,1.103 0.895,2 2,2 z"
   id="path2"
   inkscape:connector-curvature="0"
   style="clip-rule:evenodd;fill-rule:evenodd" />
</svg>