<?xml version="1.0" encoding="UTF-8" standalone="no"?>
<!-- Generator: Adobe Illustrator 15.1.0, SVG Export Plug-In . SVG Version: 6.00 Build 0)  -->

<svg
   xmlns:dc="http://purl.org/dc/elements/1.1/"
   xmlns:cc="http://creativecommons.org/ns#"
   xmlns:rdf="http://www.w3.org/1999/02/22-rdf-syntax-ns#"
   xmlns:svg="http://www.w3.org/2000/svg"
   xmlns="http://www.w3.org/2000/svg"
   xmlns:sodipodi="http://sodipodi.sourceforge.net/DTD/sodipodi-0.dtd"
   xmlns:inkscape="http://www.inkscape.org/namespaces/inkscape"
   version="1.1"
   id="Layer_1"
   x="0px"
   y="0px"
   width="47.993999"
   height="47.993999"
   viewBox="0 0 47.993999 47.993999"
   enable-background="new 0 0 100 100"
   xml:space="preserve"
   sodipodi:docname="1_ClearSky.svg"
   inkscape:version="0.92.4 5da689c313, 2019-01-14"><metadata
   id="metadata9"><rdf:RDF><cc:Work
       rdf:about=""><dc:format>image/svg+xml</dc:format><dc:type
         rdf:resource="http://purl.org/dc/dcmitype/StillImage" /><dc:title></dc:title></cc:Work></rdf:RDF></metadata><defs
   id="defs7" /><sodipodi:namedview
   pagecolor="#ffffff"
   bordercolor="#666666"
   borderopacity="1"
   objecttolerance="10"
   gridtolerance="10"
   guidetolerance="10"
   inkscape:pageopacity="0"
   inkscape:pageshadow="2"
   inkscape:window-width="1296"
   inkscape:window-height="1016"
   id="namedview5"
   showgrid="false"
   fit-margin-top="0"
   fit-margin-left="0"
   fit-margin-right="0"
   fit-margin-bottom="0"
   inkscape:zoom="4.72"
   inkscape:cx="35.708997"
   inkscape:cy="18.709287"
   inkscape:window-x="1390"
   inkscape:window-y="441"
   inkscape:window-maximized="0"
   inkscape:current-layer="Layer_1" />
<path
   d="m 45.994,25.996 h -3.998 c -1.105,0 -2,-0.894999 -2,-1.998999 0,-1.104 0.895,-2 2,-2 h 3.998 c 1.105,0 2,0.896 2,2 0,1.104 -0.894,1.998999 -2,1.998999 z M 38.139,12.685001 c -0.781,0.781 -2.049,0.781 -2.828,0 -0.781,-0.781 -0.781,-2.047 0,-2.8280005 L 38.139,7.029 c 0.779,-0.781 2.047,-0.781 2.828,0 0.779,0.781 0.779,2.0470005 0,2.8280005 z m -14.141,23.31 c -6.627,0 -12,-5.372 -12,-11.998 0,-6.627 5.372,-11.999 12,-11.999 6.627,0 11.998,5.372 11.998,11.999 0,6.626 -5.371,11.998 -11.998,11.998 z m 0,-19.997 c -4.418,0 -8,3.581 -8,7.999 0,4.416999 3.583,7.998999 8,7.998999 4.417,0 7.998,-3.582 7.998,-7.998999 0,-4.418 -3.58,-7.999 -7.998,-7.999 z m 0,-7.9990005 c -1.105,0 -2,-0.8960005 -2,-2.0000005 V 2 c 0,-1.104 0.895,-2 2,-2 1.104,0 2,0.896 2,2 v 3.999 c 0,1.104 -0.897,2.0000005 -2,2.0000005 z M 9.857,12.685001 7.029,9.8570005 C 6.248,9.0760005 6.248,7.81 7.029,7.029 7.81,6.248 9.076,6.248 9.857,7.029 l 2.828,2.8280005 c 0.781,0.7810005 0.781,2.0470005 0,2.8280005 -0.781,0.781 -2.047,0.781 -2.828,0 z m -1.858,11.312 c 0,1.104 -0.896,1.999 -2,1.999 h -4 c -1.104,0 -1.999,-0.895 -1.999,-1.999 0,-1.104 0.896,-2 1.999,-2 h 4 c 1.105,0 2,0.896 2,2 z m 1.858,11.312 c 0.781,-0.78 2.047,-0.78 2.828,0 0.781,0.781 0.781,2.048 0,2.828 l -2.828,2.828 c -0.781,0.781 -2.047,0.781 -2.828,0 -0.781,-0.78 -0.781,-2.047 0,-2.828 z m 14.141,4.686 c 1.104,0 2,0.895 2,1.999 v 4 c 0,1.104 -0.896,2 -2,2 -1.105,0 -2,-0.896 -2,-2 v -4 c 0,-1.104 0.895,-1.999 2,-1.999 z m 14.141,-4.686 2.828,2.828 c 0.779,0.781 0.779,2.048 0,2.828 -0.781,0.781 -2.049,0.781 -2.828,0 l -2.828,-2.828 c -0.781,-0.78 -0.781,-2.047 0,-2.828 0.779,-0.781 2.046,-0.781 2.828,0 z"
   id="path2"
   style="clip-rule:evenodd;fill:#000000;fill-opacity:1;fill-rule:evenodd;stroke:none;stroke-opacity:1"
   inkscape:connector-curvature="0" />
</svg>