<?xml version="1.0" encoding="UTF-8" standalone="no"?>
<!-- Generator: Adobe Illustrator 15.1.0, SVG Export Plug-In . SVG Version: 6.00 Build 0)  -->

<svg
   xmlns:dc="http://purl.org/dc/elements/1.1/"
   xmlns:cc="http://creativecommons.org/ns#"
   xmlns:rdf="http://www.w3.org/1999/02/22-rdf-syntax-ns#"
   xmlns:svg="http://www.w3.org/2000/svg"
   xmlns="http://www.w3.org/2000/svg"
   xmlns:sodipodi="http://sodipodi.sourceforge.net/DTD/sodipodi-0.dtd"
   xmlns:inkscape="http://www.inkscape.org/namespaces/inkscape"
   version="1.1"
   id="Layer_1"
   x="0px"
   y="0px"
   width="43.994999"
   height="43.995998"
   viewBox="0 0 43.994999 43.995998"
   enable-background="new 0 0 100 100"
   xml:space="preserve"
   sodipodi:docname="20_HeavyRain.svg"
   inkscape:version="0.92.4 5da689c313, 2019-01-14"><metadata
   id="metadata9"><rdf:RDF><cc:Work
       rdf:about=""><dc:format>image/svg+xml</dc:format><dc:type
         rdf:resource="http://purl.org/dc/dcmitype/StillImage" /><dc:title></dc:title></cc:Work></rdf:RDF></metadata><defs
   id="defs7" /><sodipodi:namedview
   pagecolor="#ffffff"
   bordercolor="#666666"
   borderopacity="1"
   objecttolerance="10"
   gridtolerance="10"
   guidetolerance="10"
   inkscape:pageopacity="0"
   inkscape:pageshadow="2"
   inkscape:window-width="1896"
   inkscape:window-height="1008"
   id="namedview5"
   showgrid="false"
   fit-margin-top="0"
   fit-margin-left="0"
   fit-margin-right="0"
   fit-margin-bottom="0"
   inkscape:zoom="2.36"
   inkscape:cx="-60.997847"
   inkscape:cy="27.639"
   inkscape:window-x="1090"
   inkscape:window-y="462"
   inkscape:window-maximized="0"
   inkscape:current-layer="Layer_1" />
<path
   d="m 35.996,31.298 v -4.381 c 2.389,-1.383 4,-3.961 4,-6.92 0,-4.417 -3.582,-7.999 -8,-7.999 -1.6,0 -3.082,0.48 -4.333,1.291 C 26.432,7.972 21.689,3.999 15.998,3.999 9.372,3.999 4,9.371 4,15.997 c 0,3.55 1.551,6.728 4,8.925 v 4.916 C 3.223,27.07 0,21.916 0,15.997 0,7.162 7.163,0 15.998,0 c 6.004,0 11.229,3.311 13.965,8.203 0.664,-0.113 1.338,-0.205 2.033,-0.205 6.627,0 11.999,5.372 11.999,11.999 0,5.223 -3.341,9.653 -7.999,11.301 z m -21.997,-11.3 c 1.104,0 1.999,0.896 1.999,2 v 15.998 c 0,1.105 -0.895,2 -1.999,2 -1.104,0 -2,-0.895 -2,-2 V 21.998 c 0,-1.104 0.896,-2 2,-2 z m 7.999,4 c 1.104,0 2,0.895 2,2 v 15.998 c 0,1.104 -0.896,2 -2,2 -1.104,0 -2,-0.896 -2,-2 V 25.998 c 0,-1.106 0.896,-2 2,-2 z m 7.999,-4 c 1.104,0 1.999,0.896 1.999,2 v 15.998 c 0,1.105 -0.895,2 -1.999,2 -1.104,0 -2,-0.895 -2,-2 V 21.998 c 0,-1.104 0.896,-2 2,-2 z"
   id="path2"
   inkscape:connector-curvature="0"
   style="clip-rule:evenodd;fill-rule:evenodd" />
</svg>