<?xml version="1.0" encoding="UTF-8" standalone="no"?>
<!-- Generator: Adobe Illustrator 15.1.0, SVG Export Plug-In . SVG Version: 6.00 Build 0)  -->

<svg
   xmlns:dc="http://purl.org/dc/elements/1.1/"
   xmlns:cc="http://creativecommons.org/ns#"
   xmlns:rdf="http://www.w3.org/1999/02/22-rdf-syntax-ns#"
   xmlns:svg="http://www.w3.org/2000/svg"
   xmlns="http://www.w3.org/2000/svg"
   xmlns:sodipodi="http://sodipodi.sourceforge.net/DTD/sodipodi-0.dtd"
   xmlns:inkscape="http://www.inkscape.org/namespaces/inkscape"
   version="1.1"
   id="Layer_1"
   x="0px"
   y="0px"
   width="43.995998"
   height="43.995998"
   viewBox="0 0 43.995998 43.995998"
   enable-background="new 0 0 100 100"
   xml:space="preserve"
   sodipodi:docname="21_Thunder.svg"
   inkscape:version="0.92.4 5da689c313, 2019-01-14"><metadata
   id="metadata9"><rdf:RDF><cc:Work
       rdf:about=""><dc:format>image/svg+xml</dc:format><dc:type
         rdf:resource="http://purl.org/dc/dcmitype/StillImage" /><dc:title></dc:title></cc:Work></rdf:RDF></metadata><defs
   id="defs7" /><sodipodi:namedview
   pagecolor="#ffffff"
   bordercolor="#666666"
   borderopacity="1"
   objecttolerance="10"
   gridtolerance="10"
   guidetolerance="10"
   inkscape:pageopacity="0"
   inkscape:pageshadow="2"
   inkscape:window-width="1896"
   inkscape:window-height="1038"
   id="namedview5"
   showgrid="false"
   fit-margin-top="0"
   fit-margin-left="0"
   fit-margin-right="0"
   fit-margin-bottom="0"
   inkscape:zoom="2.36"
   inkscape:cx="-99.19044"
   inkscape:cy="-15.581339"
   inkscape:window-x="1090"
   inkscape:window-y="430"
   inkscape:window-maximized="0"
   inkscape:current-layer="Layer_1" />
<path
   d="m 31.995,31.998004 c -0.28,0 -0.649,0 -1.062,0 l 3.585,-4.412 c 3.181,-1.057 5.477,-4.053 5.477,-7.588 0,-4.418 -3.581,-7.998 -7.999,-7.998 -1.601,0 -3.083,0.48 -4.333,1.29 C 26.431,7.9740032 21.689,4.0000032 15.998,4.0000032 9.372,4.0000032 4,9.3720032 4,16.000004 c 0,5.446 3.632,10.038 8.604,11.504 l -1.349,3.777 C 4.735,29.260004 0,23.183004 0,15.999004 0,7.1640032 7.163,3.2348632e-6 15.998,3.2348632e-6 c 6.004,0 11.229,3.3119999651368 13.965,8.2039999651368 0.664,-0.114 1.337,-0.205 2.033,-0.205 6.627,0 11.999,5.3710008 11.999,11.9980008 0,6.627 -5.373,12.001 -12,12.001 z m -11.998,-14 h 9.998 l -5.999,10 h 6.999 l -12.998,15.998 3.6,-11.998 h -6.6 z"
   id="path2"
   inkscape:connector-curvature="0"
   style="clip-rule:evenodd;fill-rule:evenodd" />
</svg>