<?xml version="1.0" encoding="UTF-8" standalone="no"?>
<!-- Generator: Adobe Illustrator 15.1.0, SVG Export Plug-In . SVG Version: 6.00 Build 0)  -->

<svg
   xmlns:dc="http://purl.org/dc/elements/1.1/"
   xmlns:cc="http://creativecommons.org/ns#"
   xmlns:rdf="http://www.w3.org/1999/02/22-rdf-syntax-ns#"
   xmlns:svg="http://www.w3.org/2000/svg"
   xmlns="http://www.w3.org/2000/svg"
   xmlns:sodipodi="http://sodipodi.sourceforge.net/DTD/sodipodi-0.dtd"
   xmlns:inkscape="http://www.inkscape.org/namespaces/inkscape"
   version="1.1"
   id="Layer_1"
   x="0px"
   y="0px"
   width="43.995998"
   height="43.995998"
   viewBox="0 0 43.995998 43.995998"
   enable-background="new 0 0 100 100"
   xml:space="preserve"
   sodipodi:docname="22_LightSleet.svg"
   inkscape:version="0.92.4 5da689c313, 2019-01-14"><metadata
   id="metadata9"><rdf:RDF><cc:Work
       rdf:about=""><dc:format>image/svg+xml</dc:format><dc:type
         rdf:resource="http://purl.org/dc/dcmitype/StillImage" /><dc:title></dc:title></cc:Work></rdf:RDF></metadata><defs
   id="defs7" /><sodipodi:namedview
   pagecolor="#ffffff"
   bordercolor="#666666"
   borderopacity="1"
   objecttolerance="10"
   gridtolerance="10"
   guidetolerance="10"
   inkscape:pageopacity="0"
   inkscape:pageshadow="2"
   inkscape:window-width="1896"
   inkscape:window-height="1038"
   id="namedview5"
   showgrid="false"
   fit-margin-top="0"
   fit-margin-left="0"
   fit-margin-right="0"
   fit-margin-bottom="0"
   inkscape:zoom="2.36"
   inkscape:cx="-144.10569"
   inkscape:cy="27.639"
   inkscape:window-x="1090"
   inkscape:window-y="430"
   inkscape:window-maximized="0"
   inkscape:current-layer="Layer_1" />
<path
   d="m 35.995,31.298004 v -4.381 c 2.389,-1.383 3.999,-3.961 3.999,-6.92 0,-4.417 -3.581,-7.999 -7.998,-7.999 -1.601,0 -3.084,0.48 -4.334,1.291 -1.231,-5.3170008 -5.974,-9.2900008 -11.665,-9.2900008 -6.626,0 -11.998,5.372 -11.998,11.9980008 0,3.55 1.55,6.728 3.999,8.925 v 4.916 C 3.222,27.070004 0,21.916004 0,15.997004 0,7.1620032 7.162,3.2348632e-6 15.997,3.2348632e-6 c 6.004,0 11.229,3.3109999651368 13.966,8.2029999651368 0.663,-0.113 1.336,-0.205 2.033,-0.205 6.626,0 11.998,5.3720008 11.998,11.9990008 0,5.223 -3.342,9.653 -7.999,11.301 z m -21.997,0.698 c -1.104,0 -1,-0.895 -1,-1.998 v -8 c 0,-1.104 -0.104,-2 1,-2 1.104,0 1,0.896 1,2 v 8 c 0,1.103 0.104,1.998 -1,1.998 z m 0,4 c 1.104,0 1.999,0.896 1.999,2 0,1.105 -0.895,2 -1.999,2 -1.104,0 -2,-0.895 -2,-2 0,-1.104 0.895,-2 2,-2 z m 7.999,0 c -1.104,0 -1,-0.895 -1,-2 v -7.998 c 0,-1.105 -0.104,-2 1,-2 1.104,0 1,0.895 1,2 v 7.998 c 0,1.105 0.104,2 -1,2 z m 0,4 c 1.104,0 1.999,0.895 1.999,2 0,1.104 -0.895,2 -1.999,2 -1.104,0 -2,-0.896 -2,-2 0,-1.106 0.895,-2 2,-2 z m 7.999,-8 c -1.104,0 -1,-0.895 -1,-1.998 v -8 c 0,-1.104 -0.104,-2 1,-2 1.104,0 1,0.896 1,2 v 8 c 0,1.103 0.104,1.998 -1,1.998 z m 0,4 c 1.104,0 2,0.896 2,2 0,1.105 -0.896,2 -2,2 -1.104,0 -2,-0.895 -2,-2 0,-1.104 0.896,-2 2,-2 z"
   id="path2"
   inkscape:connector-curvature="0"
   style="clip-rule:evenodd;fill-rule:evenodd" />
</svg>