<?xml version="1.0" encoding="UTF-8" standalone="no"?>
<svg
   xmlns:dc="http://purl.org/dc/elements/1.1/"
   xmlns:cc="http://creativecommons.org/ns#"
   xmlns:rdf="http://www.w3.org/1999/02/22-rdf-syntax-ns#"
   xmlns:svg="http://www.w3.org/2000/svg"
   xmlns="http://www.w3.org/2000/svg"
   xmlns:sodipodi="http://sodipodi.sourceforge.net/DTD/sodipodi-0.dtd"
   xmlns:inkscape="http://www.inkscape.org/namespaces/inkscape"
   xml:space="preserve"
   enable-background="new 0 0 100 100"
   viewBox="0 0 47.679195 45.995998"
   height="45.995998"
   width="47.679195"
   y="0px"
   x="0px"
   id="Layer_1"
   version="1.1"
   sodipodi:docname="24_HeavySleet.svg"
   inkscape:version="0.92.4 5da689c313, 2019-01-14"><sodipodi:namedview
   pagecolor="#ffffff"
   bordercolor="#666666"
   borderopacity="1"
   objecttolerance="10"
   gridtolerance="10"
   guidetolerance="10"
   inkscape:pageopacity="0"
   inkscape:pageshadow="2"
   inkscape:window-width="1896"
   inkscape:window-height="1008"
   id="namedview9"
   showgrid="false"
   fit-margin-top="0"
   fit-margin-left="0"
   fit-margin-right="0"
   fit-margin-bottom="0"
   inkscape:zoom="2.36"
   inkscape:cx="-61.053847"
   inkscape:cy="29.639"
   inkscape:window-x="1090"
   inkscape:window-y="462"
   inkscape:window-maximized="0"
   inkscape:current-layer="Layer_1" /><metadata
   id="metadata9"><rdf:RDF><cc:Work
       rdf:about=""><dc:format>image/svg+xml</dc:format><dc:type
         rdf:resource="http://purl.org/dc/dcmitype/StillImage" /><dc:title></dc:title></cc:Work></rdf:RDF></metadata><defs
   id="defs7" />
<path
   style="clip-rule:evenodd;fill-rule:evenodd"
   id="path2"
   d="m 35.995,31.298 v -4.381 c 2.389,-1.383 4,-3.961 4,-6.92 0,-4.417 -3.581,-7.999 -7.999,-7.999 -1.601,0 -3.083,0.48 -4.334,1.291 -1.231,-5.317 -5.973,-9.29 -11.664,-9.29 -6.627,0 -11.999,5.372 -11.999,11.998 0,3.55 1.551,6.728 4,8.925 v 4.916 C 3.222,27.07 0,21.916 0,15.997 0,7.162 7.162,0 15.998,0 22.002,0 27.227,3.311 29.963,8.203 30.627,8.09 31.3,7.998 31.996,7.998 c 6.626,0 11.998,5.372 11.998,11.999 0,5.223 -3.342,9.653 -7.999,11.301 z m -22.997,-9.3 c 0,-1.104 -0.104,-2 1,-2 1.104,0 1,0.896 1,2 v 23.998 h -2 v 0 0 c 0,-2.209 -1.79,-4 -3.999,-4 v -2 c 1.543,0 2.937,0.6 3.999,1.557 z m 8.999,13.998 c -1.104,0 -1,-0.895 -1,-2 v -7.998 c 0,-1.105 -0.104,-2 1,-2 1.104,0 1,0.895 1,2 v 7.998 c 0,1.105 0.104,2 -1,2 z m 7.999,-15.998 c 1.104,0 1,0.896 1,2 v 18.016 c 1.823,-2.434 4.723,-4.018 7.999,-4.018 v 2 c -4.418,0 -7.999,3.582 -7.999,8 h -2 c 0,-0.273 0.02,-0.541 0.041,-0.807 -0.054,-0.334 -0.041,-0.744 -0.041,-1.193 V 21.998 c 0,-1.104 -0.104,-2 1,-2 z"
   inkscape:connector-curvature="0" />
<circle
   r="2.5423729"
   cy="37.013775"
   cx="44.136826"
   id="path819"
   style="opacity:1;vector-effect:none;fill:#000000;fill-opacity:1;stroke:#000000;stroke-width:2;stroke-linecap:round;stroke-linejoin:round;stroke-miterlimit:4;stroke-dasharray:none;stroke-dashoffset:0;stroke-opacity:1" /><circle
   r="2.5423729"
   cy="41.382702"
   cx="22.003431"
   id="path819-3"
   style="opacity:1;vector-effect:none;fill:#000000;fill-opacity:1;stroke:#000000;stroke-width:2;stroke-linecap:round;stroke-linejoin:round;stroke-miterlimit:4;stroke-dasharray:none;stroke-dashoffset:0;stroke-opacity:1" /><circle
   r="2.5423729"
   cy="40.509541"
   cx="3.7766593"
   id="path819-3-6"
   style="opacity:1;vector-effect:none;fill:#000000;fill-opacity:1;stroke:#000000;stroke-width:2;stroke-linecap:round;stroke-linejoin:round;stroke-miterlimit:4;stroke-dasharray:none;stroke-dashoffset:0;stroke-opacity:1" /></svg>