<?xml version="1.0" encoding="UTF-8" standalone="no"?>
<!-- Generator: Adobe Illustrator 15.1.0, SVG Export Plug-In . SVG Version: 6.00 Build 0)  -->

<svg
   xmlns:dc="http://purl.org/dc/elements/1.1/"
   xmlns:cc="http://creativecommons.org/ns#"
   xmlns:rdf="http://www.w3.org/1999/02/22-rdf-syntax-ns#"
   xmlns:svg="http://www.w3.org/2000/svg"
   xmlns="http://www.w3.org/2000/svg"
   xmlns:sodipodi="http://sodipodi.sourceforge.net/DTD/sodipodi-0.dtd"
   xmlns:inkscape="http://www.inkscape.org/namespaces/inkscape"
   version="1.1"
   id="Layer_1"
   x="0px"
   y="0px"
   width="43.993999"
   height="37.997002"
   viewBox="0 0 43.993999 37.997002"
   enable-background="new 0 0 100 100"
   xml:space="preserve"
   sodipodi:docname="25_LightSnow.svg"
   inkscape:version="0.92.4 5da689c313, 2019-01-14"><metadata
   id="metadata9"><rdf:RDF><cc:Work
       rdf:about=""><dc:format>image/svg+xml</dc:format><dc:type
         rdf:resource="http://purl.org/dc/dcmitype/StillImage" /><dc:title></dc:title></cc:Work></rdf:RDF></metadata><defs
   id="defs7" /><sodipodi:namedview
   pagecolor="#ffffff"
   bordercolor="#666666"
   borderopacity="1"
   objecttolerance="10"
   gridtolerance="10"
   guidetolerance="10"
   inkscape:pageopacity="0"
   inkscape:pageshadow="2"
   inkscape:window-width="1896"
   inkscape:window-height="1008"
   id="namedview5"
   showgrid="false"
   fit-margin-top="0"
   fit-margin-left="0"
   fit-margin-right="0"
   fit-margin-bottom="0"
   inkscape:zoom="2.36"
   inkscape:cx="-61.053847"
   inkscape:cy="21.639"
   inkscape:window-x="1090"
   inkscape:window-y="462"
   inkscape:window-maximized="0"
   inkscape:current-layer="Layer_1" />
<path
   d="m 33.995,31.819 v -4.082 c 3.448,-0.891 6,-4.012 6,-7.738 C 39.995,15.582 36.413,12 31.996,12 30.395,12 28.912,12.48 27.662,13.291 26.431,7.974 21.689,4 15.998,4 9.371,4 3.999,9.373 3.999,16 c 0,4.438 2.417,8.305 5.999,10.379 v 4.445 C 4.138,28.449 0,22.711 0,15.999 0,7.164 7.162,0 15.998,0 c 6.004,0 11.229,3.312 13.965,8.204 0.664,-0.113 1.336,-0.205 2.033,-0.205 6.626,0 11.998,5.373 11.998,11.998 0,5.947 -4.326,10.867 -9.999,11.822 z m -18.926,-5.82 c 0.553,-0.957 1.775,-1.283 2.732,-0.732 l 2.196,1.267 v -2.535 c 0,-1.104 0.896,-2 2,-2 1.104,0 2,0.896 2,2 v 2.535 l 2.195,-1.268 c 0.957,-0.551 2.18,-0.225 2.731,0.732 0.553,0.957 0.225,2.18 -0.731,2.732 l -2.196,1.268 2.196,1.268 c 0.956,0.553 1.284,1.775 0.731,2.732 -0.552,0.955 -1.774,1.283 -2.731,0.73 l -2.195,-1.266 v 2.535 c 0,1.105 -0.896,2 -2,2 -1.104,0 -2,-0.895 -2,-2 v -2.535 l -2.195,1.268 c -0.957,0.553 -2.18,0.225 -2.732,-0.73 -0.552,-0.957 -0.225,-2.18 0.732,-2.732 l 2.195,-1.269 -2.195,-1.268 c -0.957,-0.553 -1.284,-1.775 -0.733,-2.732 z m 6.928,6 c 1.104,0 2,-0.896 2,-2 0,-1.105 -0.896,-2 -2,-2 -1.104,0 -2,0.895 -2,2 0,1.103 0.896,2 2,2 z"
   id="path2"
   inkscape:connector-curvature="0"
   style="clip-rule:evenodd;fill-rule:evenodd" />
</svg>