<?xml version="1.0" encoding="UTF-8" standalone="no"?>
<!-- Generator: Adobe Illustrator 15.1.0, SVG Export Plug-In . SVG Version: 6.00 Build 0)  -->

<svg
   xmlns:dc="http://purl.org/dc/elements/1.1/"
   xmlns:cc="http://creativecommons.org/ns#"
   xmlns:rdf="http://www.w3.org/1999/02/22-rdf-syntax-ns#"
   xmlns:svg="http://www.w3.org/2000/svg"
   xmlns="http://www.w3.org/2000/svg"
   xmlns:sodipodi="http://sodipodi.sourceforge.net/DTD/sodipodi-0.dtd"
   xmlns:inkscape="http://www.inkscape.org/namespaces/inkscape"
   version="1.1"
   id="Layer_1"
   x="0px"
   y="0px"
   width="43.994999"
   height="39.995998"
   viewBox="0 0 43.994999 39.995998"
   enable-background="new 0 0 100 100"
   xml:space="preserve"
   sodipodi:docname="26_ModerateSnow.svg"
   inkscape:version="0.92.4 5da689c313, 2019-01-14"><metadata
   id="metadata9"><rdf:RDF><cc:Work
       rdf:about=""><dc:format>image/svg+xml</dc:format><dc:type
         rdf:resource="http://purl.org/dc/dcmitype/StillImage" /><dc:title></dc:title></cc:Work></rdf:RDF></metadata><defs
   id="defs7" /><sodipodi:namedview
   pagecolor="#ffffff"
   bordercolor="#666666"
   borderopacity="1"
   objecttolerance="10"
   gridtolerance="10"
   guidetolerance="10"
   inkscape:pageopacity="0"
   inkscape:pageshadow="2"
   inkscape:window-width="1896"
   inkscape:window-height="1008"
   id="namedview5"
   showgrid="false"
   fit-margin-top="0"
   fit-margin-left="0"
   fit-margin-right="0"
   fit-margin-bottom="0"
   inkscape:zoom="2.36"
   inkscape:cx="-61.053847"
   inkscape:cy="23.639"
   inkscape:window-x="1090"
   inkscape:window-y="462"
   inkscape:window-maximized="0"
   inkscape:current-layer="Layer_1" />
<path
   d="m 35.996,31.3 v -4.381 c 2.389,-1.385 3.999,-3.963 3.999,-6.922 0,-4.416 -3.581,-7.998 -7.999,-7.998 -1.6,0 -3.083,0.48 -4.333,1.291 C 26.432,7.973 21.689,3.999 15.998,3.999 9.371,3.999 4,9.372 4,15.999 c 0,3.549 1.55,6.729 4,8.924 v 4.916 C 3.223,27.071 0,21.917 0,15.999 0,7.163 7.163,0 15.998,0 22.002,0 27.227,3.312 29.963,8.204 30.627,8.091 31.3,7.999 31.996,7.999 c 6.627,0 11.999,5.373 11.999,11.998 0,5.223 -3.343,9.653 -7.999,11.303 z M 13.998,23.998 c 1.105,0 2,0.896 2,2 0,1.105 -0.895,2 -2,2 -1.104,0 -1.999,-0.895 -1.999,-2 0,-1.104 0.895,-2 1.999,-2 z m 0,8 c 1.105,0 2,0.895 2,2 0,1.104 -0.895,1.998 -2,1.998 -1.104,0 -1.999,-0.895 -1.999,-1.998 0,-1.106 0.895,-2 1.999,-2 z m 8,-4 c 1.104,0 2,0.895 2,2 0,1.104 -0.896,2 -2,2 -1.105,0 -2,-0.896 -2,-2 0,-1.106 0.895,-2 2,-2 z m 0,7.998 c 1.104,0 2,0.896 2,2 0,1.105 -0.896,2 -2,2 -1.105,0 -2,-0.895 -2,-2 0,-1.104 0.895,-2 2,-2 z m 7.998,-11.998 c 1.105,0 2,0.896 2,2 0,1.105 -0.895,2 -2,2 -1.104,0 -1.999,-0.895 -1.999,-2 0,-1.104 0.896,-2 1.999,-2 z m 0,8 c 1.105,0 2,0.895 2,2 0,1.104 -0.895,1.998 -2,1.998 -1.104,0 -1.999,-0.895 -1.999,-1.998 0,-1.106 0.896,-2 1.999,-2 z"
   id="path2"
   inkscape:connector-curvature="0"
   style="clip-rule:evenodd;fill-rule:evenodd" />
</svg>