<?xml version="1.0" encoding="UTF-8" standalone="no"?>
<!-- Generator: Adobe Illustrator 15.1.0, SVG Export Plug-In . SVG Version: 6.00 Build 0)  -->

<svg
   xmlns:dc="http://purl.org/dc/elements/1.1/"
   xmlns:cc="http://creativecommons.org/ns#"
   xmlns:rdf="http://www.w3.org/1999/02/22-rdf-syntax-ns#"
   xmlns:svg="http://www.w3.org/2000/svg"
   xmlns="http://www.w3.org/2000/svg"
   xmlns:sodipodi="http://sodipodi.sourceforge.net/DTD/sodipodi-0.dtd"
   xmlns:inkscape="http://www.inkscape.org/namespaces/inkscape"
   version="1.1"
   id="Layer_1"
   x="0px"
   y="0px"
   width="43.994999"
   height="43.994999"
   viewBox="0 0 43.994999 43.994999"
   enable-background="new 0 0 100 100"
   xml:space="preserve"
   sodipodi:docname="26_ModerateSnow.svg"
   inkscape:version="0.92.4 5da689c313, 2019-01-14"><metadata
   id="metadata9"><rdf:RDF><cc:Work
       rdf:about=""><dc:format>image/svg+xml</dc:format><dc:type
         rdf:resource="http://purl.org/dc/dcmitype/StillImage" /><dc:title></dc:title></cc:Work></rdf:RDF></metadata><defs
   id="defs7" /><sodipodi:namedview
   pagecolor="#ffffff"
   bordercolor="#666666"
   borderopacity="1"
   objecttolerance="10"
   gridtolerance="10"
   guidetolerance="10"
   inkscape:pageopacity="0"
   inkscape:pageshadow="2"
   inkscape:window-width="1896"
   inkscape:window-height="1038"
   id="namedview5"
   showgrid="false"
   fit-margin-top="0"
   fit-margin-left="0"
   fit-margin-right="0"
   fit-margin-bottom="0"
   inkscape:zoom="6.675088"
   inkscape:cx="-2.6495419"
   inkscape:cy="7.441144"
   inkscape:window-x="1090"
   inkscape:window-y="430"
   inkscape:window-maximized="0"
   inkscape:current-layer="Layer_1" />
<path
   d="m 35.996,34.002111 v -4.381 c 2.389,-1.385 3.999,-3.963 3.999,-6.922 0,-4.416 -3.581,-7.998 -7.999,-7.998 -1.6,0 -3.083,0.48 -4.333,1.291 C 26.432,10.675111 21.689,6.7011116 15.998,6.7011116 9.371,6.7011116 4,12.074111 4,18.701111 c 0,3.549 1.55,6.729 4,8.924 v 4.916 c -4.777,-2.768 -8,-7.922 -8,-13.84 C 0,9.8651112 7.163,2.7021116 15.998,2.7021116 c 6.004,0 11.229,3.312 13.965,8.2039994 0.664,-0.113 1.337,-0.205 2.033,-0.205 6.627,0 11.999,5.373 11.999,11.998 0,5.223 -3.343,9.653 -7.999,11.303 z m -21.998,-7.302 c 1.105,0 2,0.896 2,2 0,1.105 -0.895,2 -2,2 -1.104,0 -1.999,-0.895 -1.999,-2 0,-1.104 0.895,-2 1.999,-2 z m 0,8 c 1.105,0 2,0.895 2,2 0,1.104 -0.895,1.998 -2,1.998 -1.104,0 -1.999,-0.895 -1.999,-1.998 0,-1.106 0.895,-2 1.999,-2 z m 8,-4 c 1.104,0 2,0.895 2,2 0,1.104 -0.896,2 -2,2 -1.105,0 -2,-0.896 -2,-2 0,-1.106 0.895,-2 2,-2 z m 0,7.998 c 1.104,0 2,0.896 2,2 0,1.105 -0.896,2 -2,2 -1.105,0 -2,-0.895 -2,-2 0,-1.104 0.895,-2 2,-2 z m 7.998,-11.998 c 1.105,0 2,0.896 2,2 0,1.105 -0.895,2 -2,2 -1.104,0 -1.999,-0.895 -1.999,-2 0,-1.104 0.896,-2 1.999,-2 z m 0,8 c 1.105,0 2,0.895 2,2 0,1.104 -0.895,1.998 -2,1.998 -1.104,0 -1.999,-0.895 -1.999,-1.998 0,-1.106 0.896,-2 1.999,-2 z"
   id="path2"
   inkscape:connector-curvature="0"
   style="clip-rule:evenodd;fill-rule:evenodd" />
</svg>