<?xml version="1.0" encoding="UTF-8" standalone="no"?>
<svg
   xmlns:dc="http://purl.org/dc/elements/1.1/"
   xmlns:cc="http://creativecommons.org/ns#"
   xmlns:rdf="http://www.w3.org/1999/02/22-rdf-syntax-ns#"
   xmlns:svg="http://www.w3.org/2000/svg"
   xmlns="http://www.w3.org/2000/svg"
   xmlns:sodipodi="http://sodipodi.sourceforge.net/DTD/sodipodi-0.dtd"
   xmlns:inkscape="http://www.inkscape.org/namespaces/inkscape"
   xml:space="preserve"
   enable-background="new 0 0 100 100"
   viewBox="0 0 46.84906 46.84906"
   height="46.84906"
   width="46.84906"
   y="0px"
   x="0px"
   id="Layer_1"
   version="1.1"
   sodipodi:docname="27_HeavySnow.svg"
   inkscape:version="0.92.4 5da689c313, 2019-01-14"><sodipodi:namedview
   pagecolor="#ffffff"
   bordercolor="#666666"
   borderopacity="1"
   objecttolerance="10"
   gridtolerance="10"
   guidetolerance="10"
   inkscape:pageopacity="0"
   inkscape:pageshadow="2"
   inkscape:window-width="1896"
   inkscape:window-height="1038"
   id="namedview7"
   showgrid="false"
   fit-margin-top="0"
   fit-margin-left="0"
   fit-margin-right="0"
   fit-margin-bottom="0"
   inkscape:zoom="4.72"
   inkscape:cx="-12.426022"
   inkscape:cy="16.576632"
   inkscape:window-x="1090"
   inkscape:window-y="430"
   inkscape:window-maximized="0"
   inkscape:current-layer="Layer_1" /><metadata
   id="metadata9"><rdf:RDF><cc:Work
       rdf:about=""><dc:format>image/svg+xml</dc:format><dc:type
         rdf:resource="http://purl.org/dc/dcmitype/StillImage" /><dc:title></dc:title></cc:Work></rdf:RDF></metadata><defs
   id="defs7" />
<path
   style="clip-rule:evenodd;fill-rule:evenodd"
   id="path2"
   d="m 37.479048,31.3 v -4.381 c 2.389,-1.385 3.999,-3.963 3.999,-6.922 0,-4.416 -3.581,-7.998 -7.999,-7.998 -1.6,0 -3.083,0.48 -4.333,1.291 -1.231,-5.3170002 -5.974,-9.2910002 -11.665,-9.2910002 -6.626999,0 -11.9979972,5.373 -11.9979972,12.0000002 0,3.549 1.55,6.729 4,8.924 v 4.916 c -4.777,-2.768 -8,-7.922 -8,-13.84 0,-8.8360002 7.163,-15.9990001171875 15.9979972,-15.9990001171875 6.004,0 11.229,3.3119999171875 13.965,8.2039999171875 0.664,-0.113 1.337,-0.205 2.033,-0.205 6.627,0 11.999,5.3730002 11.999,11.9980002 0,5.223 -3.343,9.653 -7.999,11.303 z m -21.998,-7.302 c 1.105,0 2,0.896 2,2 0,1.105 -0.895,2 -2,2 -1.104,0 -1.999,-0.895 -1.999,-2 0,-1.104 0.895,-2 1.999,-2 z m -2,8 c 1.105,0 2,0.895 2,2 0,1.104 -0.895,1.998 -2,1.998 -1.104,0 -1.999,-0.895 -1.999,-1.998 0,-1.106 0.895,-2 1.999,-2 z m 10,-4 c 1.104,0 2,0.895 2,2 0,1.104 -0.896,2 -2,2 -1.105,0 -2,-0.896 -2,-2 0,-1.106 0.895,-2 2,-2 z m 0,7.998 c 1.104,0 2,0.896 2,2 0,1.105 -0.896,2 -2,2 -1.105,0 -2,-0.895 -2,-2 0,-1.104 0.895,-2 2,-2 z m 7.998,-11.998 c 1.105,0 2,0.896 2,2 0,1.105 -0.895,2 -2,2 -1.104,0 -1.999,-0.895 -1.999,-2 0,-1.104 0.896,-2 1.999,-2 z m 2,8 c 1.105,0 2,0.895 2,2 0,1.104 -0.895,1.998 -2,1.998 -1.104,0 -1.999,-0.895 -1.999,-1.998 0,-1.106 0.896,-2 1.999,-2 z"
   inkscape:connector-curvature="0" />
<path
   id="path2-6"
   d="m 11.628799,38.85106 c 1.105,0 2,0.895 2,2 0,1.104 -0.895,1.998 -2,1.998 -1.103998,0 -1.9989972,-0.895 -1.9989972,-1.998 0,-1.106 0.8949992,-2 1.9989972,-2 z m 12,3.998 c 1.104,0 2,0.896 2,2 0,1.105 -0.896,1.999999 -2,1.999999 -1.105,0 -2,-0.894999 -2,-1.999999 0,-1.104 0.895,-2 2,-2 z m 11.998,-3.998 c 1.105,0 2,0.895 2,2 0,1.104 -0.895,1.998 -2,1.998 -1.104,0 -1.999,-0.895 -1.999,-1.998 0,-1.106 0.896,-2 1.999,-2 z"
   style="clip-rule:evenodd;fill-rule:evenodd"
   inkscape:connector-curvature="0" /></svg>