<?xml version="1.0" encoding="UTF-8" standalone="no"?>
<svg
   xmlns:dc="http://purl.org/dc/elements/1.1/"
   xmlns:cc="http://creativecommons.org/ns#"
   xmlns:rdf="http://www.w3.org/1999/02/22-rdf-syntax-ns#"
   xmlns:svg="http://www.w3.org/2000/svg"
   xmlns="http://www.w3.org/2000/svg"
   xmlns:sodipodi="http://sodipodi.sourceforge.net/DTD/sodipodi-0.dtd"
   xmlns:inkscape="http://www.inkscape.org/namespaces/inkscape"
   xml:space="preserve"
   enable-background="new 0 0 100 100"
   viewBox="0 0 56.553624 48.842651"
   height="48.842651"
   width="56.553623"
   y="0px"
   x="0px"
   id="Layer_1"
   version="1.1"
   sodipodi:docname="2_NearlyClearSky.svg"
   inkscape:version="0.92.4 5da689c313, 2019-01-14"><sodipodi:namedview
   pagecolor="#ffffff"
   bordercolor="#666666"
   borderopacity="1"
   objecttolerance="10"
   gridtolerance="10"
   guidetolerance="10"
   inkscape:pageopacity="0"
   inkscape:pageshadow="2"
   inkscape:window-width="1296"
   inkscape:window-height="1016"
   id="namedview7"
   showgrid="false"
   fit-margin-top="0"
   fit-margin-left="0"
   fit-margin-right="0"
   fit-margin-bottom="0"
   width="57.13384px"
   inkscape:zoom="5.12"
   inkscape:cx="16.453551"
   inkscape:cy="27.162246"
   inkscape:window-x="1390"
   inkscape:window-y="441"
   inkscape:window-maximized="0"
   inkscape:current-layer="Layer_1" /><metadata
   id="metadata9"><rdf:RDF><cc:Work
       rdf:about=""><dc:format>image/svg+xml</dc:format><dc:type
         rdf:resource="http://purl.org/dc/dcmitype/StillImage" /><dc:title></dc:title></cc:Work></rdf:RDF></metadata><defs
   id="defs7" />
<path
   style="clip-rule:evenodd;fill-rule:evenodd"
   id="path2"
   d="m 54.553625,25.996 h -3.998 c -1.105,0 -2,-0.895 -2,-1.999 0,-1.104 0.895,-2 2,-2 h 3.998 c 1.105,0 2,0.896 2,2 0,1.104 -0.894,1.999 -2,1.999 z m -7.855,-13.311 c -0.781,0.781 -2.049,0.781 -2.828,0 -0.781,-0.781 -0.781,-2.047 0,-2.8280006 l 2.828,-2.828 c 0.779,-0.781 2.047,-0.781 2.828,0 0.779,0.781 0.779,2.047 0,2.828 z m -14.141,23.31 c -6.627,0 -12,-5.372 -12,-11.998 0,-6.627 5.372,-11.999 12,-11.999 6.627,0 11.998,5.372 11.998,11.999 0,6.626 -5.371,11.998 -11.998,11.998 z m 0,-19.997 c -4.418,0 -8,3.581 -8,7.999 0,4.417 3.583,7.999 8,7.999 4.417,0 7.998,-3.582 7.998,-7.999 0,-4.418 -3.58,-7.999 -7.998,-7.999 z m 0,-7.9990006 c -1.105,0 -2,-0.896 -2,-2 v -3.999 C 30.557625,0.896 31.452625,0 32.557625,0 c 1.104,0 2,0.896 2,1.9999994 v 3.999 c 0,1.104 -0.897,2 -2,2 z m -14.141,4.6860006 -2.828,-2.8280006 c -0.781,-0.781 -0.781,-2.047 0,-2.828 0.781,-0.781 2.047,-0.781 2.828,0 l 2.828,2.828 c 0.781,0.7810006 0.781,2.0470006 0,2.8280006 -0.781,0.781 -2.047,0.781 -2.828,0 z m -1.858,11.312 c 0,1.104 -0.896,1.999 -2,1.999 h -4 c -1.1040004,0 -1.9990004,-0.895 -1.9990004,-1.999 0,-1.104 0.896,-2 1.9990004,-2 h 4 c 1.105,0 2,0.896 2,2 z m 15.999,15.998 c 1.104,0 2,0.895 2,1.999 v 4 c 0,1.104 -0.896,2 -2,2 -1.105,0 -2,-0.896 -2,-2 v -4 c 0,-1.104 0.895,-1.999 2,-1.999 z m 14.141,-4.686 2.828,2.828 c 0.779,0.781 0.779,2.048 0,2.828 -0.781,0.781 -2.049,0.781 -2.828,0 l -2.828,-2.828 c -0.781,-0.78 -0.781,-2.047 0,-2.828 0.779,-0.781 2.046,-0.781 2.828,0 z"
   inkscape:connector-curvature="0" />
<path
   id="path11"
   d="m 10.939613,48.507936 c -5.8566232,0 -10.60489844,-4.841754 -10.60489844,-10.815187 0,-5.973434 4.74827524,-10.815187 10.60489844,-10.815187 3.979986,0 7.44358,2.239024 9.257245,5.545504 0.440157,-0.07639 0.886945,-0.138586 1.347653,-0.138586 4.392965,0 7.954005,3.632328 7.954005,8.112403 0,4.478723 -3.56104,8.111053 -7.954005,8.111053 -1.839517,0 -8.484979,0 -10.604898,0 z m 10.604898,-2.704135 c 2.928644,0 5.303112,-2.421553 5.303112,-5.406918 0,-2.986717 -2.374468,-5.408269 -5.303112,-5.408269 -1.060623,0 -2.043024,0.325172 -2.872298,0.872759 -0.816016,-3.593795 -3.960099,-6.280352 -7.7326,-6.280352 -4.3923021,0 -7.953342,3.631653 -7.953342,8.111728 0,4.479399 3.5610399,8.111052 7.953342,8.111052 2.39767,0 8.603636,0 10.604898,0 z"
   style="clip-rule:evenodd;fill:#000000;fill-opacity:1;fill-rule:evenodd;stroke:#000000;stroke-width:0.66942912;stroke-opacity:1"
   inkscape:connector-curvature="0" /></svg>