<?xml version="1.0" encoding="UTF-8" standalone="no"?>
<svg
   xmlns:dc="http://purl.org/dc/elements/1.1/"
   xmlns:cc="http://creativecommons.org/ns#"
   xmlns:rdf="http://www.w3.org/1999/02/22-rdf-syntax-ns#"
   xmlns:svg="http://www.w3.org/2000/svg"
   xmlns="http://www.w3.org/2000/svg"
   xmlns:sodipodi="http://sodipodi.sourceforge.net/DTD/sodipodi-0.dtd"
   xmlns:inkscape="http://www.inkscape.org/namespaces/inkscape"
   xml:space="preserve"
   enable-background="new 0 0 100 100"
   viewBox="0 0 54.883609 44.276901"
   height="44.276901"
   width="54.88361"
   y="0px"
   x="0px"
   id="Layer_1"
   version="1.1"
   sodipodi:docname="3_VariableCloudiness.svg"
   inkscape:version="0.92.4 5da689c313, 2019-01-14"><sodipodi:namedview
   pagecolor="#ffffff"
   bordercolor="#666666"
   borderopacity="1"
   objecttolerance="10"
   gridtolerance="10"
   guidetolerance="10"
   inkscape:pageopacity="0"
   inkscape:pageshadow="2"
   inkscape:window-width="1296"
   inkscape:window-height="1016"
   id="namedview9"
   showgrid="false"
   fit-margin-top="0"
   fit-margin-left="0"
   fit-margin-right="0"
   fit-margin-bottom="0"
   inkscape:zoom="3.337544"
   inkscape:cx="21.314369"
   inkscape:cy="11.293203"
   inkscape:window-x="1390"
   inkscape:window-y="441"
   inkscape:window-maximized="0"
   inkscape:current-layer="g1504" /><metadata
   id="metadata9"><rdf:RDF><cc:Work
       rdf:about=""><dc:format>image/svg+xml</dc:format><dc:type
         rdf:resource="http://purl.org/dc/dcmitype/StillImage" /><dc:title></dc:title></cc:Work></rdf:RDF></metadata><defs
   id="defs7" />

<g
   id="g1504"
   transform="translate(-20.863161,-30.136379)"><path
     d="m 67.378865,52.185917 -3.184321,-0.108186 c -0.880108,-0.0299 -1.568738,-0.766968 -1.538864,-1.64628 0.02987,-0.879311 0.766968,-1.568738 1.647077,-1.538837 l 3.18432,0.108186 c 0.880109,0.0299 1.568712,0.767765 1.538837,1.647077 -0.02987,0.879311 -0.766144,1.567968 -1.647049,1.53804 z m -17.78991,7.368777 c -5.278262,-0.179326 -9.412375,-4.603401 -9.233076,-9.880867 0.179326,-5.278261 4.603374,-9.411578 9.882433,-9.232224 5.278261,0.179326 9.410781,4.603347 9.231455,9.881609 -0.179299,5.277465 -4.602551,9.410808 -9.880812,9.231482 z m 0.541117,-15.927178 c -3.518842,-0.11955 -6.468728,2.635709 -6.588279,6.154551 -0.119524,3.518045 2.637329,6.467986 6.155374,6.58751 3.518045,0.119523 6.467163,-2.63656 6.586686,-6.154605 0.119551,-3.518842 -2.634939,-6.467905 -6.153781,-6.587456 z m 0.216452,-6.37103 c -0.880108,-0.0299 -1.568711,-0.767765 -1.538837,-1.647076 L 48.9159,32.424292 c 0.02987,-0.879311 0.766968,-1.568738 1.647077,-1.538837 0.879311,0.02987 1.568711,0.767765 1.538837,1.647077 l -0.108213,3.185117 c -0.02987,0.879312 -0.768562,1.568684 -1.647077,1.538837 z M 38.956721,40.60613 36.780806,38.277163 c -0.600916,-0.643183 -0.566659,-1.651526 0.07653,-2.252441 0.643183,-0.600916 1.651525,-0.566658 2.252441,0.07653 l 2.175916,2.328966 c 0.600915,0.643183 0.566657,1.651525 -0.07653,2.252441 -0.643184,0.600915 -1.651525,0.566657 -2.252441,-0.07652 z m -1.785958,8.959485 c -0.02987,0.879312 -0.767738,1.567915 -1.64705,1.53804 l -3.185914,-0.108239 c -0.879311,-0.02987 -1.567941,-0.766942 -1.538067,-1.646254 0.02987,-0.879311 0.767765,-1.568711 1.64628,-1.538864 l 3.185914,0.10824 c 0.880108,0.0299 1.568711,0.767765 1.538837,1.647077 z m 23.699755,9.825349 2.175915,2.328967 c 0.599324,0.643128 0.565039,1.652267 -0.07653,2.25244 -0.643183,0.600916 -1.653118,0.566604 -2.252441,-0.07653 L 58.541551,61.56688 c -0.600942,-0.642388 -0.566657,-1.651525 0.07653,-2.252442 0.641591,-0.600969 1.650729,-0.566684 2.252441,0.07653 z"
     id="path2"
     style="clip-rule:evenodd;fill-rule:evenodd;stroke-width:0.79693788"
     inkscape:connector-curvature="0" /><path
     style="clip-rule:evenodd;fill-rule:evenodd;stroke-width:0.69349897"
     d="m 31.849368,74.41328 c -6.067204,0 -10.986207,-5.015843 -10.986207,-11.204056 0,-6.188213 4.919003,-11.204056 10.986207,-11.204056 4.123089,0 7.71122,2.31953 9.590096,5.744898 0.455984,-0.07914 0.918836,-0.14357 1.396109,-0.14357 4.550918,0 8.239998,3.762932 8.239998,8.404092 0,4.639759 -3.68908,8.402692 -8.239998,8.402692 -1.905658,0 -8.790063,0 -10.986205,0 z m 10.986205,-2.801364 c 3.033946,0 5.49379,-2.508622 5.49379,-5.601328 0,-3.094107 -2.459844,-5.602728 -5.49379,-5.602728 -1.098758,0 -2.116482,0.336864 -2.975573,0.90414 -0.845357,-3.723013 -4.102488,-6.506168 -8.010632,-6.506168 -4.550232,0 -8.239312,3.762232 -8.239312,8.403392 0,4.64046 3.68908,8.402692 8.239312,8.402692 2.48388,0 8.912986,0 10.986205,0 z"
     id="path11"
     inkscape:connector-curvature="0" /><path
     style="clip-rule:evenodd;fill:#000000;fill-opacity:1;fill-rule:evenodd;stroke:#000000;stroke-width:0.51842523;stroke-opacity:1"
     d="m 61.115009,47.14678 c -4.535539,0 -8.212741,-3.749595 -8.212741,-8.375594 0,-4.625999 3.677202,-8.375594 8.212741,-8.375594 3.082216,0 5.764524,1.733965 7.169078,4.2946 0.34087,-0.05916 0.686876,-0.107326 1.043661,-0.107326 3.402039,0 6.159812,2.81298 6.159812,6.28248 0,3.468453 -2.757773,6.281434 -6.159812,6.281434 -1.424575,0 -6.571013,0 -8.212739,0 z m 8.212739,-2.09416 c 2.268027,0 4.106883,-1.875321 4.106883,-4.187274 0,-2.313 -1.838856,-4.18832 -4.106883,-4.18832 -0.821377,0 -1.582176,0.251823 -2.22439,0.67589 -0.631947,-2.783139 -3.066815,-4.863687 -5.988349,-4.863687 -3.401527,0 -6.159299,2.812457 -6.159299,6.281957 0,3.468977 2.757772,6.281434 6.159299,6.281434 1.856825,0 6.662904,0 8.212739,0 z"
     id="path11-3"
     inkscape:connector-curvature="0" /></g></svg>