<?xml version="1.0" encoding="UTF-8" standalone="no"?>
<svg
   xmlns:dc="http://purl.org/dc/elements/1.1/"
   xmlns:cc="http://creativecommons.org/ns#"
   xmlns:rdf="http://www.w3.org/1999/02/22-rdf-syntax-ns#"
   xmlns:svg="http://www.w3.org/2000/svg"
   xmlns="http://www.w3.org/2000/svg"
   xmlns:sodipodi="http://sodipodi.sourceforge.net/DTD/sodipodi-0.dtd"
   xmlns:inkscape="http://www.inkscape.org/namespaces/inkscape"
   xml:space="preserve"
   enable-background="new 0 0 100 100"
   viewBox="0 0 45.282791 45.282791"
   height="45.282791"
   width="45.282791"
   y="0px"
   x="0px"
   id="Layer_1"
   version="1.1"
   sodipodi:docname="5_CloudySky.svg"
   inkscape:version="0.92.4 5da689c313, 2019-01-14"><sodipodi:namedview
   pagecolor="#ffffff"
   bordercolor="#666666"
   borderopacity="1"
   objecttolerance="10"
   gridtolerance="10"
   guidetolerance="10"
   inkscape:pageopacity="0"
   inkscape:pageshadow="2"
   inkscape:window-width="1296"
   inkscape:window-height="1016"
   id="namedview8"
   showgrid="false"
   fit-margin-top="0"
   fit-margin-left="0"
   fit-margin-right="0"
   fit-margin-bottom="0"
   inkscape:zoom="3.337544"
   inkscape:cx="16.667663"
   inkscape:cy="-10.413538"
   inkscape:window-x="1259"
   inkscape:window-y="467"
   inkscape:window-maximized="0"
   inkscape:current-layer="Layer_1" /><metadata
   id="metadata18"><rdf:RDF><cc:Work
       rdf:about=""><dc:format>image/svg+xml</dc:format><dc:type
         rdf:resource="http://purl.org/dc/dcmitype/StillImage" /><dc:title></dc:title></cc:Work></rdf:RDF></metadata><defs
   id="defs16" />
<path
   style="clip-rule:evenodd;fill-rule:evenodd;stroke:none;stroke-opacity:1"
   id="path11"
   d="m 15.998,42.084301 c -8.835,0 -15.998,-7.162 -15.998,-15.998 0,-8.836 7.163,-15.998 15.998,-15.998 6.004,0 11.229,3.312 13.965,8.203 0.664,-0.113 1.338,-0.205 2.033,-0.205 6.627,0 11.999,5.373 11.999,12 0,6.625 -5.372,11.998 -11.999,11.998 -2.775,0 -12.8,0 -15.998,0 z m 15.998,-4 c 4.418,0 8,-3.582 8,-7.998 0,-4.418 -3.582,-8 -8,-8 -1.6,0 -3.082,0.481 -4.333,1.291 -1.231,-5.316 -5.974,-9.29 -11.665,-9.29 -6.626,0 -11.998,5.372 -11.998,11.999 0,6.626 5.372,11.998 11.998,11.998 3.617,0 12.979,0 15.998,0 z"
   inkscape:connector-curvature="0" />
<path
   id="path2"
   d="m 42.899421,19.667897 -2.228038,-0.227519 c -0.614938,-0.0628 -1.063112,-0.612283 -1.00026,-1.227778 0.0628,-0.614939 0.612727,-1.061942 1.227664,-0.999146 l 2.228038,0.227518 c 0.614939,0.0628 1.063113,0.612283 1.000373,1.226665 -0.06285,0.615495 -0.612839,1.063055 -1.227777,1.00026 z m -3.619243,-7.861815 c -0.479447,0.390601 -1.184622,0.318591 -1.575224,-0.160857 -0.390657,-0.478888 -0.318591,-1.184621 0.160799,-1.574664 l 1.736079,-1.414366 c 0.479449,-0.390601 1.184622,-0.318593 1.575224,0.160856 0.390658,0.4788895 0.318591,1.184618 -0.160855,1.575221 z M 31.670042,8.391602 C 31.055104,8.328802 30.607488,7.779376 30.670283,7.164438 l 0.227462,-2.2274821 c 0.06285,-0.615495 0.61284,-1.063054 1.227221,-1.000316 0.615497,0.06285 1.063112,0.612283 1.00026,1.227778 L 32.897765,7.391899 c -0.06285,0.615496 -0.611669,1.062612 -1.227723,0.999703 z M 23.52739,10.197469 22.113523,8.462008 C 21.722921,7.98256 21.794987,7.276828 22.274378,6.886784 22.753269,6.4961249 23.458999,6.5681909 23.849045,7.047582 l 1.414366,1.73608 c 0.390659,0.4788885 0.318593,1.1846195 -0.160799,1.574662 -0.478891,0.390659 -1.184621,0.318593 -1.575222,-0.160855 z"
   style="clip-rule:evenodd;fill:#000000;fill-opacity:1;fill-rule:evenodd;stroke:#000000;stroke-width:2.29999995;stroke-miterlimit:4;stroke-dasharray:none;stroke-opacity:1"
   inkscape:connector-curvature="0" /><circle
   r="2.8284271"
   cy="16.959944"
   cx="30.21253"
   id="path1396"
   style="opacity:1;vector-effect:none;fill:#000000;fill-opacity:1;stroke:#000000;stroke-width:4;stroke-linecap:round;stroke-linejoin:round;stroke-miterlimit:4;stroke-dasharray:none;stroke-dashoffset:0;stroke-opacity:1" /></svg>