<?xml version="1.0" encoding="UTF-8" standalone="no"?>
<!-- Generator: Adobe Illustrator 15.1.0, SVG Export Plug-In . SVG Version: 6.00 Build 0)  -->

<svg
   xmlns:dc="http://purl.org/dc/elements/1.1/"
   xmlns:cc="http://creativecommons.org/ns#"
   xmlns:rdf="http://www.w3.org/1999/02/22-rdf-syntax-ns#"
   xmlns:svg="http://www.w3.org/2000/svg"
   xmlns="http://www.w3.org/2000/svg"
   xmlns:sodipodi="http://sodipodi.sourceforge.net/DTD/sodipodi-0.dtd"
   xmlns:inkscape="http://www.inkscape.org/namespaces/inkscape"
   version="1.1"
   id="Layer_1"
   x="0px"
   y="0px"
   width="43.994999"
   height="43.994999"
   viewBox="0 0 43.994999 43.994999"
   enable-background="new 0 0 100 100"
   xml:space="preserve"
   sodipodi:docname="6_Overcast.svg"
   inkscape:version="0.92.4 5da689c313, 2019-01-14"><metadata
   id="metadata9"><rdf:RDF><cc:Work
       rdf:about=""><dc:format>image/svg+xml</dc:format><dc:type
         rdf:resource="http://purl.org/dc/dcmitype/StillImage" /><dc:title></dc:title></cc:Work></rdf:RDF></metadata><defs
   id="defs7" /><sodipodi:namedview
   pagecolor="#ffffff"
   bordercolor="#666666"
   borderopacity="1"
   objecttolerance="10"
   gridtolerance="10"
   guidetolerance="10"
   inkscape:pageopacity="0"
   inkscape:pageshadow="2"
   inkscape:window-width="1896"
   inkscape:window-height="1038"
   id="namedview5"
   showgrid="false"
   fit-margin-top="0"
   fit-margin-left="0"
   fit-margin-right="0"
   fit-margin-bottom="0"
   inkscape:zoom="2.36"
   inkscape:cx="-44.896152"
   inkscape:cy="16.486458"
   inkscape:window-x="1090"
   inkscape:window-y="430"
   inkscape:window-maximized="0"
   inkscape:current-layer="Layer_1" />
<path
   d="m 15.998,37.571271 c -8.835,0 -15.998,-7.162 -15.998,-15.998 0,-8.836 7.163,-15.9979998 15.998,-15.9979998 6.004,0 11.229,3.312 13.965,8.2029998 0.664,-0.113 1.338,-0.205 2.033,-0.205 6.627,0 11.999,5.373 11.999,12 0,6.625 -5.372,11.998 -11.999,11.998 -2.775,0 -12.8,0 -15.998,0 z m 15.998,-4 c 4.418,0 8,-3.582 8,-7.998 0,-4.418 -3.582,-8 -8,-8 -1.6,0 -3.082,0.481 -4.333,1.291 C 26.432,13.548271 21.689,9.5742712 15.998,9.5742712 9.372,9.5742712 4,14.946271 4,21.573271 c 0,6.626 5.372,11.998 11.998,11.998 3.617,0 12.979,0 15.998,0 z"
   id="path2"
   inkscape:connector-curvature="0"
   style="clip-rule:evenodd;fill-rule:evenodd" />
</svg>