<?xml version="1.0" encoding="UTF-8" standalone="no"?>
<!-- Generator: Adobe Illustrator 15.1.0, SVG Export Plug-In . SVG Version: 6.00 Build 0)  -->

<svg
   xmlns:dc="http://purl.org/dc/elements/1.1/"
   xmlns:cc="http://creativecommons.org/ns#"
   xmlns:rdf="http://www.w3.org/1999/02/22-rdf-syntax-ns#"
   xmlns:svg="http://www.w3.org/2000/svg"
   xmlns="http://www.w3.org/2000/svg"
   xmlns:sodipodi="http://sodipodi.sourceforge.net/DTD/sodipodi-0.dtd"
   xmlns:inkscape="http://www.inkscape.org/namespaces/inkscape"
   version="1.1"
   id="Layer_1"
   x="0px"
   y="0px"
   width="53.993999"
   height="53.993999"
   viewBox="0 0 53.993999 53.993999"
   enable-background="new 0 0 100 100"
   xml:space="preserve"
   sodipodi:docname="7_Fog.svg"
   inkscape:version="0.92.4 5da689c313, 2019-01-14"><metadata
   id="metadata9"><rdf:RDF><cc:Work
       rdf:about=""><dc:format>image/svg+xml</dc:format><dc:type
         rdf:resource="http://purl.org/dc/dcmitype/StillImage" /><dc:title></dc:title></cc:Work></rdf:RDF></metadata><defs
   id="defs7" /><sodipodi:namedview
   pagecolor="#ffffff"
   bordercolor="#666666"
   borderopacity="1"
   objecttolerance="10"
   gridtolerance="10"
   guidetolerance="10"
   inkscape:pageopacity="0"
   inkscape:pageshadow="2"
   inkscape:window-width="1296"
   inkscape:window-height="1016"
   id="namedview5"
   showgrid="false"
   fit-margin-top="0"
   fit-margin-left="0"
   fit-margin-right="0"
   fit-margin-bottom="0"
   inkscape:zoom="2.36"
   inkscape:cx="-4.274186"
   inkscape:cy="32.283068"
   inkscape:window-x="1516"
   inkscape:window-y="475"
   inkscape:window-maximized="0"
   inkscape:current-layer="Layer_1" />
<path
   d="m 51.994,29.998 h -4 c -1.104,0 -2,-0.896 -2,-2 0,-1.104 0.896,-2 2,-2 h 4 c 1.104,0 2,0.896 2,2 0,1.103 -0.896,2 -2,2 z M 44.137,16.685 c -0.781,0.781 -2.047,0.781 -2.828,0 -0.781,-0.781 -0.781,-2.047 0,-2.828 l 2.828,-2.828 c 0.781,-0.781 2.047,-0.781 2.828,0 0.781,0.781 0.781,2.047 0,2.828 z M 41.815,29.998 H 1.174 c 0.281,-0.693 0.613,-1.359 0.984,-2 H 29.83 c 0.041,0.07 0.094,0.134 0.133,0.205 0.664,-0.114 1.337,-0.205 2.033,-0.205 2.125,0 4.119,0.559 5.85,1.527 v 0 c 0.096,-0.494 0.15,-1.006 0.15,-1.527 0,-4.418 -3.582,-7.999 -8,-7.999 -2.025,0 -3.869,0.759 -5.277,1.999 H 8.26 c 2.294,-1.271 4.93,-1.999 7.738,-1.999 1.572,0 3.09,0.232 4.523,0.655 C 22.716,17.826 26.139,16 29.996,16 c 6.627,0 11.999,5.371 11.999,11.998 0,0.683 -0.067,1.349 -0.18,2 z M 29.996,12 c -1.104,0 -1.999,-0.896 -1.999,-2 V 6.001 c 0,-1.104 0.896,-2 1.999,-2 1.105,0 2,0.896 2,2 V 10 c 0,1.104 -0.895,2 -2,2 z m -14.141,4.685 -2.827,-2.828 c -0.781,-0.781 -0.781,-2.047 0,-2.828 0.78,-0.781 2.047,-0.781 2.827,0 l 2.828,2.828 c 0.781,0.781 0.781,2.047 0,2.828 -0.78,0.781 -2.046,0.781 -2.828,0 z M 5.441,23.998 h 21.081 c 0.696,0.611 1.337,1.278 1.918,2 H 3.521 c 0.58,-0.723 1.225,-1.388 1.92,-2 z M 43.822,37.996 H 0.139 C 0.057,37.34 0,36.676 0,35.996 h 43.303 c 0.228,0.644 0.404,1.312 0.519,2 z m -38.381,10 h 35.48 c -0.68,0.758 -1.447,1.434 -2.299,1.998 H 8.26 C 7.244,49.433 6.305,48.755 5.441,47.996 Z m -3.283,-4 h 41.139 c -0.246,0.699 -0.555,1.367 -0.92,2 H 3.521 c -0.504,-0.629 -0.957,-1.299 -1.363,-2 z m -2.019,-10 C 0.224,33.314 0.357,32.65 0.526,31.998 H 41.29 c -0.035,0.098 -0.062,0.197 -0.1,0.295 v 0 c 0.445,0.529 0.845,1.102 1.194,1.703 z m 0.386,6 h 43.47 c 0,0.684 -0.071,1.348 -0.181,2 H 1.174 c -0.262,-0.647 -0.473,-1.317 -0.649,-2 z"
   id="path2"
   inkscape:connector-curvature="0"
   style="clip-rule:evenodd;fill-rule:evenodd" />
</svg>