<?xml version="1.0" encoding="UTF-8" standalone="no"?>
<!-- Generator: Adobe Illustrator 15.1.0, SVG Export Plug-In . SVG Version: 6.00 Build 0)  -->

<svg
   xmlns:dc="http://purl.org/dc/elements/1.1/"
   xmlns:cc="http://creativecommons.org/ns#"
   xmlns:rdf="http://www.w3.org/1999/02/22-rdf-syntax-ns#"
   xmlns:svg="http://www.w3.org/2000/svg"
   xmlns="http://www.w3.org/2000/svg"
   xmlns:sodipodi="http://sodipodi.sourceforge.net/DTD/sodipodi-0.dtd"
   xmlns:inkscape="http://www.inkscape.org/namespaces/inkscape"
   version="1.1"
   id="Layer_1"
   x="0px"
   y="0px"
   width="58.445"
   height="58.445"
   viewBox="0 0 58.445 58.445"
   enable-background="new 0 0 100 100"
   xml:space="preserve"
   sodipodi:docname="8_LightRainShowers.svg"
   inkscape:version="0.92.4 5da689c313, 2019-01-14"><metadata
   id="metadata9"><rdf:RDF><cc:Work
       rdf:about=""><dc:format>image/svg+xml</dc:format><dc:type
         rdf:resource="http://purl.org/dc/dcmitype/StillImage" /><dc:title></dc:title></cc:Work></rdf:RDF></metadata><defs
   id="defs7" /><sodipodi:namedview
   pagecolor="#ffffff"
   bordercolor="#666666"
   borderopacity="1"
   objecttolerance="10"
   gridtolerance="10"
   guidetolerance="10"
   inkscape:pageopacity="0"
   inkscape:pageshadow="2"
   inkscape:window-width="1296"
   inkscape:window-height="1016"
   id="namedview5"
   showgrid="false"
   fit-margin-top="0"
   fit-margin-left="0"
   fit-margin-right="0"
   fit-margin-bottom="0"
   inkscape:zoom="2.36"
   inkscape:cx="-26.253084"
   inkscape:cy="8.7181186"
   inkscape:window-x="1535"
   inkscape:window-y="453"
   inkscape:window-maximized="0"
   inkscape:current-layer="Layer_1" />
<path
   d="m 54.959103,25.995 h -4 c -1.104,0 -2,-0.895 -2,-2 0,-1.104 0.896,-1.998 2,-1.998 h 4 c 1.104,0 1.999,0.895 1.999,1.998 0,1.106 -0.894,2 -1.999,2 z m -7.857,-13.312 c -0.781,0.781 -2.047,0.781 -2.828,0 -0.781,-0.78 -0.781,-2.047 0,-2.8269994 l 2.828,-2.828 c 0.781,-0.781 2.047,-0.781 2.828,0 0.781,0.78 0.781,2.047 0,2.828 z m -2.947,15.607 v 0 c 1.749,2.086 2.806,4.77 2.806,7.706 v 0 c 0,5.227 -3.349,9.66 -8.014,11.305 -0.027,-1.336 -0.434,-2.66 -1.222,-3.807 3.054,-1.127 5.235,-4.055 5.235,-7.498 0,-4.418 -3.581,-8 -7.999,-8 -1.601,0 -3.083,0.482 -4.333,1.291 -1.232,-5.316 -5.974,-9.29 -11.665,-9.29 -6.626,0 -11.9980014,5.372 -11.9980014,11.999 0,1.404 0.254,2.746 0.697,4 h 0.015 c 0.975,2.74 2.8950004,5.031 5.3950014,6.445 l -0.058,0.057 c -0.980001,0.98 -1.596001,2.184 -1.872001,3.445 C 7.3911016,43.836 4.5911016,40.257 3.4901016,35.996 v 0 c -0.33,-1.281 -0.524,-2.617 -0.524,-4 0,-8.836 7.1630004,-15.998 15.9980014,-15.998 1.572,0 3.089,0.232 4.523,0.654 2.195,-2.827 5.618,-4.654 9.475,-4.654 6.627,0 11.999,5.372 11.999,11.998 -0.001,1.515 -0.294,2.96 -0.806,4.294 z m -11.194,-12.292 c -2.212,0 -4.214,0.898 -5.662,2.35 2.34,1.436 4.286,3.453 5.629,5.853 0.664,-0.113 1.337,-0.205 2.033,-0.205 2.126,0 4.118,0.559 5.85,1.527 v 0 c 0.096,-0.494 0.149,-1.004 0.149,-1.527 0,-4.417 -3.581,-7.998 -7.999,-7.998 z m 0,-7.9999994 c -1.104,0 -1.999,-0.895 -1.999,-1.999 v -3.999 c 0,-1.10499998 0.895,-1.99999998964844 1.999,-1.99999998964844 1.104,0 2,0.89500000964844 2,1.99999998964844 v 3.999 c 0,1.104 -0.895,1.999 -2,1.999 z m -14.139,4.6849994 -2.828,-2.8269994 c -0.781,-0.781 -0.781,-2.048 0,-2.828 0.78,-0.781 2.047,-0.781 2.828,0 l 2.828,2.828 c 0.78,0.7799994 0.78,2.0469994 0,2.8269994 -0.781,0.781 -2.048,0.781 -2.828,0 z m -0.859,30.522 2.121,2.121 c 1.172,1.172 1.172,3.07 0,4.242 -1.171,1.172 -3.07,1.172 -4.242,0 -1.171,-1.172 -1.171,-3.07 0,-4.242 z m 6.999,7.998 2.121,2.121 c 1.172,1.172 1.172,3.072 0,4.242 -1.171,1.172 -3.07,1.172 -4.242,0 -1.171,-1.17 -1.171,-3.07 0,-4.242 z m 6.999,-7.998 2.121,2.121 c 1.172,1.172 1.172,3.07 0,4.242 -1.171,1.172 -3.07,1.172 -4.241,0 -1.172,-1.172 -1.172,-3.07 0,-4.242 z"
   id="path2"
   inkscape:connector-curvature="0"
   style="clip-rule:evenodd;fill-rule:evenodd" />
</svg>