<?xml version="1.0" encoding="UTF-8" standalone="no"?>
<!-- Generator: Adobe Illustrator 15.1.0, SVG Export Plug-In . SVG Version: 6.00 Build 0)  -->

<svg
   xmlns:dc="http://purl.org/dc/elements/1.1/"
   xmlns:cc="http://creativecommons.org/ns#"
   xmlns:rdf="http://www.w3.org/1999/02/22-rdf-syntax-ns#"
   xmlns:svg="http://www.w3.org/2000/svg"
   xmlns="http://www.w3.org/2000/svg"
   xmlns:sodipodi="http://sodipodi.sourceforge.net/DTD/sodipodi-0.dtd"
   xmlns:inkscape="http://www.inkscape.org/namespaces/inkscape"
   version="1.1"
   id="Layer_1"
   x="0px"
   y="0px"
   width="53.992001"
   height="59.992001"
   viewBox="0 0 53.992001 59.992001"
   enable-background="new 0 0 100 100"
   xml:space="preserve"
   sodipodi:docname="9_ModerateRainShowers.svg"
   inkscape:version="0.92.4 5da689c313, 2019-01-14"><metadata
   id="metadata9"><rdf:RDF><cc:Work
       rdf:about=""><dc:format>image/svg+xml</dc:format><dc:type
         rdf:resource="http://purl.org/dc/dcmitype/StillImage" /><dc:title></dc:title></cc:Work></rdf:RDF></metadata><defs
   id="defs7" /><sodipodi:namedview
   pagecolor="#ffffff"
   bordercolor="#666666"
   borderopacity="1"
   objecttolerance="10"
   gridtolerance="10"
   guidetolerance="10"
   inkscape:pageopacity="0"
   inkscape:pageshadow="2"
   inkscape:window-width="1896"
   inkscape:window-height="1008"
   id="namedview5"
   showgrid="false"
   fit-margin-top="0"
   fit-margin-left="0"
   fit-margin-right="0"
   fit-margin-bottom="0"
   inkscape:zoom="2.36"
   inkscape:cx="-60.998847"
   inkscape:cy="27.637"
   inkscape:window-x="1090"
   inkscape:window-y="462"
   inkscape:window-maximized="0"
   inkscape:current-layer="Layer_1" />
<path
   d="m 51.992,25.996 h -3.999 c -1.104,0 -2,-0.895 -2,-2 0,-1.104 0.896,-1.999 2,-1.999 h 3.999 c 1.104,0 2,0.895 2,1.999 0,1.105 -0.895,2 -2,2 z M 44.136,12.684 c -0.781,0.781 -2.048,0.781 -2.828,0 -0.781,-0.78 -0.781,-2.047 0,-2.827 l 2.828,-2.828 c 0.78,-0.781 2.047,-0.781 2.828,0 0.78,0.78 0.78,2.047 0,2.828 z m -2.947,15.607 v 0 c 1.749,2.086 2.805,4.77 2.805,7.705 0,5.221 -3.342,9.652 -7.999,11.301 v -4.381 c 2.389,-1.385 4,-3.961 4,-6.92 0,-4.418 -3.582,-8 -7.999,-8 -1.601,0 -3.084,0.482 -4.334,1.291 -1.231,-5.316 -5.973,-9.29 -11.664,-9.29 -6.627,0 -11.999,5.372 -11.999,11.999 0,3.549 1.551,6.729 4,8.926 v 4.914 C 3.222,43.068 0,37.914 0,31.996 0,23.16 7.162,15.998 15.998,15.998 c 1.572,0 3.089,0.232 4.523,0.654 2.195,-2.827 5.617,-4.654 9.475,-4.654 6.627,0 11.998,5.372 11.998,11.998 -10e-4,1.515 -0.293,2.961 -0.805,4.295 z M 29.995,15.998 c -2.213,0 -4.215,0.898 -5.663,2.35 2.341,1.436 4.286,3.452 5.63,5.853 0.664,-0.113 1.336,-0.205 2.033,-0.205 2.125,0 4.118,0.559 5.85,1.527 v 0 c 0.096,-0.494 0.149,-1.004 0.149,-1.527 0,-4.417 -3.581,-7.998 -7.999,-7.998 z m 0,-8 c -1.104,0 -2,-0.895 -2,-1.999 V 2 c 0,-1.105 0.896,-2 2,-2 1.104,0 2,0.895 2,2 v 3.999 c 0,1.105 -0.895,1.999 -2,1.999 z m -14.14,4.686 -2.828,-2.827 c -0.78,-0.781 -0.78,-2.048 0,-2.828 0.781,-0.781 2.047,-0.781 2.828,0 l 2.828,2.828 c 0.781,0.78 0.781,2.047 0,2.827 -0.781,0.781 -2.047,0.781 -2.828,0 z m -1.858,23.312 c 1.104,0 2,0.895 2,2 v 3.998 c 0,1.105 -0.896,2 -2,2 -1.104,0 -2,-0.895 -2,-2 v -3.998 c 0,-1.106 0.896,-2 2,-2 z m 0,11.998 c 1.104,0 2,0.895 2,2 v 3.998 c 0,1.105 -0.896,2 -2,2 -1.104,0 -2,-0.895 -2,-2 v -3.998 c 0,-1.106 0.896,-2 2,-2 z m 7.999,-8 c 1.104,0 2,0.896 2,2 v 4 c 0,1.104 -0.896,2 -2,2 -1.104,0 -2,-0.896 -2,-2 v -4 c 0,-1.104 0.896,-2 2,-2 z m 0,12 c 1.104,0 2,0.895 2,1.998 v 4 c 0,1.105 -0.896,2 -2,2 -1.104,0 -2,-0.895 -2,-2 v -4 c 0,-1.104 0.896,-1.998 2,-1.998 z m 7.999,-15.998 c 1.104,0 2,0.895 2,2 v 3.998 c 0,1.105 -0.896,2 -2,2 -1.104,0 -2,-0.895 -2,-2 v -3.998 c 0,-1.106 0.896,-2 2,-2 z m 0,11.998 c 1.104,0 2,0.895 2,2 v 3.998 c 0,1.105 -0.896,2 -2,2 -1.104,0 -2,-0.895 -2,-2 v -3.998 c 0,-1.106 0.896,-2 2,-2 z"
   id="path2"
   inkscape:connector-curvature="0"
   style="clip-rule:evenodd;fill-rule:evenodd" />
</svg>